<?xml version="1.0" encoding="utf-8"?>
<!-- Generator: Adobe Illustrator 14.0.0, SVG Export Plug-In . SVG Version: 6.00 Build 43363)  -->
<!DOCTYPE svg PUBLIC "-//W3C//DTD SVG 1.1//EN" "http://www.w3.org/Graphics/SVG/1.1/DTD/svg11.dtd">
<svg version="1.1" id="Layer_1" xmlns="http://www.w3.org/2000/svg" xmlns:xlink="http://www.w3.org/1999/xlink" x="0px" y="0px"
	 width="30px" height="33px" viewBox="0 -1.5 30 33" enable-background="new 0 -1.5 30 33" xml:space="preserve">
<g>
	<path fill="#CC3C66" d="M2.795,7.968C2.629,3.999,5.523,1.974,9.293,1.974c2.291,0,4.038,0.516,7.75,1.786
		c2.733,0.954,4.75,1.667,6.771,1.667c1.967,0,2.894-1.149,2.949-3.333h3.22c0.274,4.406-2.836,5.994-6.224,5.994
		c-2.183,0-4.149-0.477-7.918-1.747c-2.563-0.914-4.584-1.747-6.548-1.747c-1.969,0-3.168,0.993-3.225,3.374H2.795z"/>
	<path fill="#CC3C66" d="M2.795,19.016c-0.166-3.97,2.729-5.994,6.498-5.994c2.291,0,4.038,0.515,7.75,1.786
		c2.733,0.953,4.75,1.667,6.771,1.667c1.967,0,2.894-1.149,2.949-3.333h3.22c0.274,4.405-2.836,5.994-6.224,5.994
		c-2.183,0-4.149-0.478-7.918-1.745c-2.563-0.914-4.584-1.748-6.548-1.748c-1.969,0-3.168,0.992-3.225,3.375H2.795V19.016z"/>
	<path fill="#CC3C66" d="M2.795,30.063c-0.166-3.971,2.729-5.996,6.498-5.996c2.291,0,4.038,0.519,7.75,1.787
		c2.733,0.953,4.75,1.668,6.771,1.668c1.967,0,2.894-1.15,2.949-3.332h3.22c0.274,4.404-2.836,5.992-6.224,5.992
		c-2.183,0-4.149-0.478-7.918-1.746c-2.563-0.914-4.584-1.748-6.548-1.748c-1.969,0-3.168,0.992-3.225,3.375H2.795z"/>
</g>
<g>
	<path fill="#FFFFFF" d="M1.122,6.968C0.956,2.999,3.85,0.974,7.62,0.974c2.291,0,4.038,0.516,7.75,1.786
		c2.734,0.954,4.75,1.667,6.771,1.667c1.967,0,2.895-1.149,2.949-3.333h3.221c0.273,4.406-2.836,5.994-6.225,5.994
		c-2.182,0-4.148-0.477-7.917-1.747C11.605,4.427,9.584,3.594,7.62,3.594c-1.969,0-3.168,0.993-3.225,3.374H1.122z"/>
	<path fill="#FFFFFF" d="M1.122,18.016c-0.166-3.97,2.729-5.994,6.498-5.994c2.291,0,4.038,0.515,7.75,1.786
		c2.734,0.953,4.75,1.667,6.771,1.667c1.967,0,2.895-1.15,2.949-3.333h3.221c0.273,4.405-2.836,5.994-6.225,5.994
		c-2.182,0-4.148-0.478-7.917-1.745c-2.564-0.915-4.585-1.749-6.549-1.749c-1.969,0-3.168,0.993-3.225,3.375H1.122V18.016z"/>
	<path fill="#FFFFFF" d="M1.122,29.063c-0.166-3.971,2.729-5.996,6.498-5.996c2.291,0,4.038,0.519,7.75,1.787
		c2.734,0.953,4.75,1.668,6.771,1.668c1.967,0,2.895-1.15,2.949-3.332h3.221c0.273,4.404-2.836,5.992-6.225,5.992
		c-2.182,0-4.148-0.478-7.917-1.746c-2.564-0.914-4.585-1.748-6.549-1.748c-1.969,0-3.168,0.992-3.225,3.375H1.122z"/>
</g>
</svg>
