<?xml version="1.0" encoding="utf-8"?>
<!-- Generator: Adobe Illustrator 14.0.0, SVG Export Plug-In . SVG Version: 6.00 Build 43363)  -->
<!DOCTYPE svg PUBLIC "-//W3C//DTD SVG 1.1//EN" "http://www.w3.org/Graphics/SVG/1.1/DTD/svg11.dtd">
<svg version="1.1" id="Layer_1" xmlns="http://www.w3.org/2000/svg" xmlns:xlink="http://www.w3.org/1999/xlink" x="0px" y="0px"
	 width="337px" height="135.852px" viewBox="0 0 337 135.852" enable-background="new 0 0 337 135.852" xml:space="preserve">
<g>
	<g>
		<path fill="#FFD478" d="M81.513,13.157l-0.48-0.484l1.851-5.666c0.808,0.707,2.09,1.252,3.286,1.639
			c1.224,0.398,2.418,0.626,3.28,0.626c0.126,0,0.237-0.01,0.352-0.02l-2.528,7.757C85.063,16.063,83.075,14.731,81.513,13.157z"/>
		<path fill="#CC3C66" d="M86.858,18.271c-2.476-1.046-4.609-2.491-6.281-4.186l-1.095,3.351c1.811,1.566,3.961,2.899,6.385,3.892
			L86.858,18.271z"/>
		<path fill="#CC3C66" d="M73.503,41.861c0,0.133-0.007,0.273-0.023,0.408c-0.009,0.09-0.021,0.19-0.042,0.29
			c-0.022,0.129-0.052,0.259-0.085,0.389c-0.021,0.082-0.049,0.156-0.07,0.23c-0.063,0.178-0.105,0.304-0.157,0.427
			c-0.022,0.056-0.052,0.114-0.077,0.169c-0.187,0.39-0.42,0.768-0.69,1.139c0.706,0.516,1.468,0.983,2.256,1.425
			c0.904,0.352,1.757,0.774,2.556,1.26c0.039,0.016,0.08,0.035,0.118,0.051l0.995-3.055c-1.789-0.758-3.394-1.721-4.783-2.837
			C73.503,41.793,73.507,41.827,73.503,41.861z"/>
		<path fill="#CC3C66" d="M86.579,7.389c1.913,0.625,3.585,0.749,3.738,0.274c0.156-0.466-1.269-1.354-3.179-1.979
			C85.226,5.066,83.557,4.942,83.4,5.41C83.251,5.882,84.669,6.771,86.579,7.389z"/>
		<path fill="#FFD478" d="M82.98,30.17l2.477-7.584l-0.095-0.037c-2.34-0.962-4.454-2.237-6.314-3.772l-2.301,7.061l0.478,0.483
			C78.781,27.89,80.771,29.221,82.98,30.17z"/>
		<path fill="#FFD478" d="M69.638,34.839c0.79,0.763,1.154,1.72,1.086,2.873c0.531,0.318,0.979,0.658,1.357,1.021l0.271-3.314
			l-0.099-0.015C71.358,35.266,70.493,35.067,69.638,34.839z"/>
		<path fill="#FFD478" d="M73.932,15.774l0.658-8.122c-0.879,0.29-1.923,0.296-2.431,0.296c-0.003,0-0.003,0-0.006,0
			c-0.397,0-0.814-0.017-1.234-0.053c-1.252-0.101-2.631-0.332-3.579-0.833l-0.48,5.944l0.579,0.358
			C69.322,14.537,71.57,15.368,73.932,15.774z"/>
		<path fill="#CC3C66" d="M73.825,17.099c-2.648-0.441-5.06-1.355-7.083-2.611l-0.286,3.514c2.123,1.104,4.524,1.894,7.115,2.298
			L73.825,17.099z"/>
		<path fill="#FFD478" d="M72.82,29.572l0.644-7.952l-0.098-0.015c-2.505-0.39-4.857-1.138-7.021-2.198l-0.599,7.397l0.579,0.358
			C68.2,28.329,70.445,29.159,72.82,29.572z"/>
		<path fill="#CC3C66" d="M82.57,31.433c-2.479-1.048-4.607-2.489-6.285-4.184L75.192,30.6c1.805,1.568,3.962,2.893,6.383,3.888
			L82.57,31.433z"/>
		<path fill="#CC3C66" d="M66.071,29.645c0.221,0.809,0.169,1.639-0.143,2.431c1.981,0.952,4.171,1.658,6.526,2.024l0.264-3.203
			c-2.658-0.445-5.066-1.351-7.093-2.614l-0.023,0.284C65.812,28.915,65.971,29.272,66.071,29.645z"/>
		<path fill="#FFD478" d="M72.931,39.479c1.564,1.578,3.556,2.909,5.763,3.852l2.468-7.584l-0.088-0.037
			c-2.345-0.963-4.463-2.238-6.32-3.771l-2.298,7.06L72.931,39.479z"/>
		<path fill="#CC3C66" d="M71.024,6.58c2.004,0.161,3.663-0.109,3.698-0.604c0.04-0.492-1.551-1.021-3.553-1.184
			c-2.001-0.16-3.657,0.108-3.695,0.602C67.435,5.889,69.026,6.417,71.024,6.58z"/>
	</g>
	<path fill="#FFD478" d="M76.398,57.797c-6.578,1.975-9.942-0.833-16.558,0.514c-8.02,1.628-16.397,2.392-24.185-0.476
		c-2.119-0.777-3.844-1.976-5.953-2.767c-2.281-0.85-3.486-0.691-5.906-0.981c-1.674-0.205-4.682-3.106-4.682-3.106
		s0.003-0.017,0.012-0.03c0.564-0.075,1.101-0.108,1.542-0.114c2.586-0.02,4.775,0.673,6.765,1.889
		c1.177,0.724,2.361,1.604,3.985,1.562c1.225-0.032,2.31-0.613,3.51-0.662c3.542-0.133,6.311,1.854,9.726,2.318
		c2.204,0.297,3.814,0.389,5.939-0.166c2.161-0.562,4.564-0.805,6.847-0.659c2.713,0.176,5.159,0.354,7.838-0.182
		c1.939-0.389,3.503-1.123,5.265-1.806c1.343-0.517,2.634-0.962,3.936-1.56c1.136-0.519,2.313-0.648,3.133-1.473
		c0.099-0.097,0.199-0.239,0.308-0.39C80.635,51.96,79.975,56.723,76.398,57.797z"/>
	<path fill="#FFD478" d="M82.44,90.792c-0.442,0.106-0.884,0.2-1.334,0.293l-0.335,0.063c-2.453,0.468-4.912,0.695-7.298,0.913
		c-0.823,0.075-1.646,0.15-2.467,0.237c-1.404,0.145-2.82,0.218-4.21,0.218c-6.91,0-12.916-1.878-17.378-3.516
		c-1.491-0.548-2.961-1.146-4.433-1.748c-3.725-1.521-7.243-2.958-11.042-3.517c-0.535-0.082-1.063-0.145-1.595-0.196l-0.636-0.052
		c-0.399-0.032-0.676-0.055-0.951-0.067l-1.587-0.051l-1.555,0.013c-0.344,0.009-1.575,0.066-1.575,0.066
		c-0.364,0.023-1.51,0.117-1.51,0.117c-0.424,0.036-0.872,0.082-1.316,0.127c-0.588,0.068-1.095,0.132-1.598,0.198
		c0,0-0.927,0.123-1.271,0.176c-1.09,0.159-2.14,0.244-3.12,0.244c-4.028,0-7.303-1.398-9.534-3.989
		c-1.358,0.745-2.671,1.47-3.197,1.76l0,0c-0.156,0.081-0.247,0.137-0.247,0.137s0.016,0.34,0.054,0.869
		c0.003,0.049,0.008,0.098,0.012,0.148c0,0.001,0.001,0.003,0.001,0.003c0.004,0.053,0.006,0.107,0.01,0.166l0.001,0.001
		c0.153,1.939,0.552,5.763,1.437,7.576c2.136,4.382,7.076,3.058,12.064,4.227c12.735,2.988,24.691,3.559,38.167,2.626
		c8.805-0.606,16.63-1.566,25.375-3.561c0.381-0.088,0.745-0.196,1.093-0.313c0.017-0.005,0.036-0.011,0.056-0.017
		c0.329-0.116,0.642-0.246,0.938-0.387c0.033-0.016,0.062-0.028,0.091-0.041c0.283-0.139,0.55-0.286,0.804-0.443
		c0.039-0.024,0.078-0.045,0.117-0.07c0.241-0.15,0.469-0.311,0.68-0.48c0.046-0.031,0.091-0.064,0.134-0.098
		c0.202-0.162,0.394-0.327,0.575-0.5c0.046-0.04,0.096-0.087,0.137-0.132c0.166-0.164,0.326-0.333,0.483-0.503
		c0.041-0.055,0.09-0.106,0.14-0.163c0.136-0.163,0.267-0.328,0.393-0.496c0.047-0.063,0.088-0.124,0.135-0.185
		c0.113-0.161,0.22-0.32,0.32-0.482c0.047-0.069,0.085-0.135,0.124-0.201c0.091-0.154,0.179-0.309,0.264-0.458
		c0.036-0.07,0.072-0.143,0.107-0.214c0.071-0.143,0.143-0.282,0.205-0.422c0.036-0.072,0.062-0.142,0.095-0.211
		c0.048-0.118,0.098-0.229,0.143-0.339c0.033-0.086,0.063-0.168,0.091-0.245c0.036-0.091,0.068-0.182,0.096-0.27
		C86.993,88.866,84.852,90.209,82.44,90.792z"/>
	<path fill="#FFD478" d="M94.203,70.646c-0.011-0.047-0.026-0.094-0.039-0.141c-0.026-0.117-0.063-0.23-0.105-0.351
		c-0.019-0.053-0.038-0.105-0.062-0.16c-0.049-0.12-0.104-0.242-0.163-0.367c-0.021-0.046-0.044-0.094-0.07-0.14
		c-0.079-0.149-0.163-0.299-0.251-0.45c-0.017-0.022-0.03-0.041-0.043-0.066c-0.228-0.368-0.494-0.736-0.777-1.098
		c-0.009-0.011-0.02-0.023-0.029-0.034c-0.13-0.169-0.267-0.334-0.406-0.496c-0.018-0.023-0.036-0.043-0.056-0.062
		c-0.13-0.16-0.264-0.313-0.403-0.462c-0.017-0.016-0.028-0.034-0.042-0.051c-0.449-0.49-0.889-0.938-1.276-1.311
		c-0.058-0.053-0.106-0.103-0.162-0.154c-0.055-0.053-0.106-0.101-0.159-0.15c-0.514-0.486-0.869-0.789-0.869-0.789
		s-1.109-0.804-2.817-1.833l-0.106,0.187c-0.108,0.203-0.234,0.392-0.385,0.574l-0.429,0.527l-0.726,0.422
		c-0.033,0.021-0.131,0.068-0.248,0.119c-0.243,0.104-0.507,0.19-0.787,0.25l-0.276,0.049c-0.198,0.031-0.43,0.052-0.7,0.052
		c-0.349-0.01-0.539-0.014-0.726-0.014c-1.907,0-3.995,0.304-6.569,0.951c-3.374,0.849-6.516,2.082-9.845,3.386
		c-1.47,0.576-2.938,1.152-4.426,1.696c-6.73,2.452-13.95,3.695-21.454,3.695c-2.68,0-5.443-0.157-8.216-0.472
		c-8.019-0.902-13.673-2.872-18.907-6.592c-0.229-0.161-0.571-0.312-0.922-0.492c-0.096-0.048-0.213-0.107-0.317-0.162
		c-2.12,0.519-3.511,0.901-3.511,0.901s-0.013,0.072-0.027,0.197c-0.004,0.005-0.004,0.012-0.004,0.02
		c-0.008,0.059-0.014,0.128-0.026,0.211c-0.001,0.012-0.001,0.025-0.003,0.038c-0.009,0.081-0.02,0.176-0.028,0.281
		c0,0.013-0.001,0.022-0.003,0.036c-0.011,0.109-0.02,0.229-0.028,0.358c0,0.011-0.001,0.022-0.001,0.036
		c-0.011,0.134-0.016,0.275-0.024,0.426c-0.003,0.012-0.003,0.023-0.003,0.034c-0.007,0.155-0.01,0.322-0.015,0.491
		c0,0.01,0,0.019,0,0.025c-0.027,1.464,0.103,3.47,0.769,5.389c0.008,0.019,0.014,0.037,0.022,0.062
		c0.075,0.211,0.154,0.419,0.242,0.628c0.006,0.015,0.013,0.026,0.018,0.041c0,0,0,0,0.003,0c1.373,3.197,4.425,5.88,11.042,4.894
		c0.444-0.063,0.885-0.123,1.324-0.181h0.003c0.532-0.069,1.061-0.136,1.588-0.194c0.029-0.005,0.062-0.008,0.095-0.014
		c0.463-0.051,0.928-0.095,1.392-0.137c0.132-0.011,0.267-0.024,0.403-0.036c0.399-0.032,0.797-0.059,1.196-0.081
		c0.202-0.014,0.397-0.024,0.595-0.032c0.355-0.018,0.713-0.032,1.067-0.044c0.243-0.007,0.488-0.007,0.732-0.012
		c0.319,0,0.64-0.004,0.962,0c0.288,0.001,0.576,0.012,0.859,0.022c0.29,0.008,0.574,0.016,0.862,0.032
		c0.348,0.017,0.696,0.045,1.043,0.074c0.235,0.019,0.464,0.033,0.693,0.056c0.589,0.058,1.173,0.127,1.764,0.215
		c5.777,0.855,10.833,3.487,16.128,5.433c6.619,2.43,12.82,3.869,20.102,3.113c3.261-0.341,6.582-0.526,9.787-1.169h0.004
		c0.403-0.079,0.807-0.164,1.203-0.262c3.97-0.958,7.312-4.856,7.312-4.856s5.28-9.505,5.284-11.6
		C94.255,70.955,94.232,70.804,94.203,70.646z"/>
	<path fill="#FFD478" d="M83.481,61.015L83.481,61.015c-0.009,0.055-0.028,0.101-0.055,0.146c-0.004,0.01-0.011,0.02-0.02,0.027
		c-0.029,0.044-0.068,0.08-0.121,0.106c-0.006,0.003-0.014,0.006-0.019,0.006c-0.05,0.026-0.111,0.046-0.173,0.059
		c-0.023,0.005-0.042,0.01-0.065,0.011c-0.077,0.012-0.163,0.018-0.267,0.015c-2.746-0.091-5.473,0.391-8.056,1.038
		c-5.128,1.295-9.758,3.419-14.596,5.183c-8.898,3.24-18.331,4.154-28.159,3.045c-7.064-0.793-12.384-2.468-17.354-5.999
		c-1.167-0.827-4.077-1.708-3.965-3.052c0.01-0.124,0.036-0.251,0.068-0.377c0.012-0.045,0.029-0.088,0.042-0.136
		c0.026-0.081,0.054-0.167,0.088-0.25c0.02-0.052,0.047-0.105,0.07-0.158c0.036-0.078,0.073-0.156,0.115-0.234
		c0.029-0.052,0.058-0.107,0.089-0.159c0.045-0.079,0.093-0.157,0.145-0.234c0.031-0.052,0.065-0.103,0.099-0.153
		c0.058-0.081,0.117-0.162,0.174-0.244c0.036-0.044,0.07-0.091,0.104-0.136c0.075-0.095,0.151-0.187,0.231-0.28
		c0.023-0.029,0.044-0.059,0.07-0.086c0.215-0.249,0.441-0.486,0.664-0.712c0.015-0.015,0.032-0.029,0.045-0.044
		c0.102-0.096,0.198-0.192,0.294-0.281c0.018-0.017,0.034-0.031,0.049-0.047c0.099-0.089,0.193-0.177,0.288-0.259
		c0.01-0.011,0.021-0.021,0.031-0.031c0.418-0.369,0.783-0.658,0.981-0.807h0.002c0.102-0.079,0.159-0.124,0.159-0.124
		s2.832-0.363,3.694-1.007c0.867-0.643,0.571-1.374,1.894-1.992c0.086-0.041,0.195-0.071,0.296-0.108
		c1.046,0.781,2.291,1.534,3.311,1.657c0.686,0.084,1.28,0.13,1.827,0.176c1.335,0.107,2.296,0.185,3.778,0.735
		c0.963,0.363,1.854,0.819,2.792,1.304c0.99,0.511,2.013,1.041,3.163,1.467c3.668,1.35,7.617,2.004,12.074,2.004
		c3.796,0,7.872-0.47,12.833-1.477c1.176-0.241,2.325-0.354,3.52-0.354c1.353,0,2.578,0.143,3.874,0.292
		c1.269,0.149,2.583,0.306,3.995,0.306c1.819,0,3.495-0.251,5.281-0.788c1.161-0.346,2.127-1.025,2.84-1.926
		c1.959,1.064,3.7,2.773,3.858,3.666c0,0.006,0,0.013,0.004,0.018C83.492,60.888,83.495,60.956,83.481,61.015z"/>
	<path fill="#FFD478" d="M69.04,46.409c0.028-0.02,0.055-0.042,0.077-0.062c0.052-0.042,0.104-0.081,0.153-0.12
		c0.126-0.108,0.253-0.215,0.374-0.324c0.059-0.048,0.11-0.094,0.165-0.145c0.121-0.104,0.232-0.211,0.342-0.315
		c0.053-0.053,0.102-0.103,0.157-0.154c0.104-0.107,0.207-0.211,0.308-0.32c0.046-0.047,0.088-0.1,0.134-0.148
		c0.099-0.111,0.196-0.22,0.284-0.329c0.029-0.039,0.055-0.076,0.09-0.114c0.29-0.376,0.53-0.758,0.714-1.138
		c0.021-0.05,0.048-0.101,0.07-0.151c0.043-0.1,0.075-0.198,0.105-0.295c0.021-0.065,0.044-0.126,0.063-0.192
		c0.027-0.09,0.043-0.185,0.057-0.279c0.016-0.069,0.022-0.137,0.031-0.204c0.011-0.089,0.014-0.181,0.017-0.27
		c0-0.07-0.003-0.138-0.01-0.207c-0.003-0.089-0.013-0.176-0.026-0.264c-0.012-0.071-0.036-0.141-0.052-0.211
		c-0.019-0.085-0.042-0.173-0.072-0.254c-0.028-0.075-0.067-0.146-0.1-0.218c-0.065-0.132-0.14-0.264-0.231-0.393
		c-0.062-0.088-0.116-0.177-0.186-0.265c0,0.001,0,0.001,0,0.001c-0.507-0.614-1.323-1.194-2.489-1.728
		c0.099-0.021,0.196-0.035,0.293-0.057c0.052-0.199,0.077-0.383,0.095-0.562c0-0.02,0-0.04,0-0.059
		c0.099-1.531-1.058-2.417-2.733-2.945l-0.074,0.089c-0.218,0.256-0.449,0.509-0.727,0.768c-2.026,1.905-5.032,2.793-9.464,2.793
		c-2.288,0-4.609-0.239-6.477-0.433c-0.64-0.065-1.235-0.126-1.769-0.172c-0.145-0.01-0.351-0.033-0.561-0.068l-0.574-0.115
		l-0.139-0.038c-0.701-0.163-1.524-0.471-2.399-0.795c-1.921-0.714-4.1-1.524-6.98-1.524c-2.148,0-4.344,0.45-6.719,1.374
		l-2.034,0.787l-0.123-0.126l-0.112,0.021c-0.145,0.022-0.282,0.038-0.411,0.046l-0.359,0.015c-0.145,0-0.267-0.006-0.39-0.017
		l-0.267-0.022l-0.224-0.046c-0.172-0.033-0.332-0.078-0.485-0.13l-0.195-0.061l-0.288-0.138c-0.126-0.062-0.238-0.141-0.355-0.218
		c-0.046,0.092-0.1,0.173-0.142,0.268c-1.609,3.556,0.435,6.11,4.578,7.336c-1.505-0.047-3.019-0.136-4.57-0.254
		c-5.628-0.423-9.52,3.195-6.772,4.653c0.005,0.001,0.011,0.005,0.017,0.008c0.092,0.047,0.191,0.094,0.296,0.137
		c0.025,0.01,0.045,0.022,0.071,0.03c0.093,0.037,0.202,0.07,0.309,0.102c0.033,0.013,0.066,0.023,0.103,0.035
		c0.146,0.041,0.297,0.076,0.463,0.109l0.003-0.004c-0.088,0.163-0.163,0.319-0.231,0.474c0.341-0.029,0.676-0.051,0.983-0.054
		h0.119c2.656,0,5.061,0.682,7.353,2.084l0.41,0.258c0.949,0.596,1.769,1.11,2.772,1.11l0.078-0.001
		c0.465-0.012,0.958-0.145,1.484-0.288c0.595-0.159,1.27-0.344,2.008-0.373c0.132-0.004,0.266-0.006,0.397-0.006
		c2.128,0,3.959,0.646,5.729,1.27c1.299,0.456,2.521,0.885,3.827,1.063c1.179,0.16,1.965,0.229,2.695,0.229
		c0.922,0,1.791-0.117,2.736-0.363c1.868-0.483,3.892-0.742,5.854-0.742c0.472,0,0.947,0.015,1.41,0.046l0.26,0.017
		c1.246,0.079,2.424,0.156,3.585,0.156c1.364,0,2.521-0.106,3.65-0.334c1.417-0.283,2.642-0.78,3.947-1.304
		c0.361-0.147,0.723-0.293,1.1-0.439c0.37-0.144,0.741-0.283,1.106-0.42c0.953-0.355,1.854-0.694,2.755-1.106
		c0.437-0.202,0.868-0.348,1.256-0.48c0.648-0.22,1.162-0.395,1.491-0.724c0.049-0.057,0.101-0.13,0.159-0.211l0.014-0.022
		C74.499,47.417,71.846,46.658,69.04,46.409z"/>
	<path fill="#FFD478" d="M64.061,32.63c-0.137,0.163-0.289,0.328-0.465,0.495c-3.152,2.96-11.011,1.649-15.154,1.298
		c-0.095-0.005-0.194-0.016-0.295-0.036c-0.032-0.003-0.071-0.015-0.105-0.019c-0.067-0.013-0.137-0.026-0.203-0.04
		c-0.023-0.006-0.047-0.013-0.07-0.019c-3.159-0.751-8.661-4.542-18.185-0.841c-0.001-0.001-0.004-0.005-0.007-0.007
		c-0.104,0.044-0.208,0.08-0.317,0.123c-0.154,0.064-0.302,0.117-0.436,0.163c-0.044,0.016-0.088,0.029-0.13,0.042
		c-0.088,0.028-0.173,0.059-0.25,0.078c-0.046,0.012-0.088,0.023-0.13,0.034c-0.067,0.017-0.136,0.033-0.194,0.041
		c-0.044,0.01-0.082,0.016-0.118,0.023c-0.057,0.008-0.11,0.013-0.161,0.018c-0.032,0-0.063,0.003-0.093,0.003
		c-0.052,0-0.094-0.003-0.138-0.008c-0.021-0.001-0.047-0.001-0.067-0.007c-0.044-0.009-0.091-0.022-0.128-0.037
		c-0.008-0.003-0.021-0.007-0.028-0.011c-0.09-0.044-0.153-0.113-0.187-0.199c-0.003-0.006-0.009-0.018-0.01-0.026
		c-0.009-0.036-0.021-0.075-0.024-0.114c0-0.017,0-0.026-0.001-0.042c0-0.039,0-0.083,0.005-0.13c0-0.013,0.004-0.027,0.006-0.042
		c0.008-0.049,0.016-0.101,0.034-0.155c0.002-0.013,0.004-0.026,0.008-0.039c0.018-0.063,0.041-0.125,0.065-0.193
		c0-0.007,0.005-0.014,0.006-0.02c0.088-0.226,0.221-0.482,0.377-0.75c0.01-0.011,0.015-0.021,0.02-0.031
		c0.048-0.078,0.093-0.154,0.144-0.234c0.011-0.02,0.026-0.036,0.037-0.054c0.047-0.071,0.095-0.141,0.14-0.216
		c0.017-0.023,0.031-0.042,0.046-0.065c0.048-0.072,0.097-0.143,0.149-0.215c0.012-0.02,0.029-0.042,0.044-0.064
		c0.055-0.071,0.104-0.143,0.158-0.216c0.017-0.02,0.028-0.038,0.044-0.061c0.059-0.084,0.124-0.168,0.187-0.247
		c0.026-0.04,0.059-0.075,0.085-0.114c0.041-0.053,0.083-0.108,0.123-0.16c0.046-0.06,0.091-0.117,0.14-0.177
		c0.018-0.02,0.036-0.042,0.052-0.063c0.054-0.07,0.104-0.133,0.161-0.202c0.006-0.006,0.012-0.013,0.016-0.021
		c0.654-0.804,1.211-1.411,1.211-1.411s0.019-0.01,0.054-0.036c0.066-0.042,0.193-0.124,0.358-0.231
		c0.02-0.011,0.032-0.023,0.057-0.033c0.086-0.061,0.19-0.124,0.298-0.195c0.006-0.003,0.015-0.007,0.024-0.014
		c0.115-0.074,0.24-0.153,0.377-0.241c0.006-0.003,0.013-0.006,0.02-0.013c0.132-0.082,0.27-0.169,0.42-0.26
		c0.017-0.011,0.029-0.02,0.045-0.031c0.142-0.089,0.29-0.18,0.441-0.275c0.026-0.013,0.049-0.029,0.074-0.045
		c0.151-0.091,0.306-0.186,0.464-0.283c0.026-0.015,0.052-0.033,0.081-0.048c0.16-0.097,0.319-0.194,0.482-0.291
		c0.03-0.019,0.061-0.036,0.089-0.054c0.162-0.096,0.325-0.193,0.49-0.288c0.034-0.02,0.062-0.038,0.094-0.055
		c0.165-0.095,0.322-0.186,0.488-0.282c0.032-0.018,0.067-0.037,0.104-0.057c0.16-0.092,0.316-0.18,0.471-0.262
		c0.031-0.018,0.062-0.034,0.091-0.05c0.446-0.244,0.866-0.459,1.243-0.634c0.071-0.036,0.146-0.071,0.216-0.104
		c0.07-0.029,0.131-0.054,0.2-0.082c0.068-0.029,0.143-0.063,0.205-0.088c0,0,0.003,0,0.003,0.002
		c0.157-0.062,0.308-0.112,0.432-0.142c4.583-1.119,7-1.79,5.977-5.88c-0.787-3.14-1.453-6.294,2.855-8.582
		c4.49-2.379,7.549-0.572,7.939,3.264c-0.566-1.156-0.979-2.812-2.173-2.458c0,0.007,0.003,0.012,0.009,0.017
		c-0.074,0.023-0.144,0.023-0.221,0.062c-5.322,2.44,1.894,11.041,4.396,12.595c3.082,1.915,10.113,4.786,7.958,8.446
		c-0.007,0.013-0.013,0.027-0.02,0.041c-0.088,0.145-0.192,0.294-0.315,0.441C64.12,32.555,64.091,32.593,64.061,32.63z"/>
	<g>
		<path fill="#CC3C66" d="M62.08,98.724c1.376-0.127,2.716-0.267,4.024-0.417l0.113,30.937c-1.649,0.207-3.435,0.385-5.339,0.529
			L62.08,98.724z"/>
		<path fill="#CC3C66" d="M54.697,99.277c0.673-0.04,1.34-0.077,2.029-0.123c0.671-0.046,1.325-0.099,1.977-0.147l0.106,30.904
			c-1.692,0.1-3.458,0.175-5.306,0.222L54.697,99.277z"/>
		<path fill="#CC3C66" d="M37.628,129.784c-1.904-0.138-3.69-0.315-5.34-0.518l0.109-30.363c1.339,0.14,2.691,0.254,4.051,0.348
			L37.628,129.784z"/>
		<path fill="#CC3C66" d="M72.716,128.101c-1.302,0.315-2.781,0.603-4.448,0.857l1.201-31.069c1.364-0.184,2.696-0.384,4.019-0.6
			L72.716,128.101z"/>
		<path fill="#CC3C66" d="M51.408,130.171c-0.738,0.009-1.483,0.013-2.242,0.013c-0.698,0-1.388-0.004-2.069-0.011l0.11-30.624
			c1.341-0.018,2.701-0.05,4.086-0.103L51.408,130.171z"/>
		<path fill="#CC3C66" d="M78.569,124.814c0,0,0,0.006,0,0.01c0,0.978-1.345,1.897-3.759,2.687l2.102-30.825
			c1.797-0.34,3.585-0.714,5.392-1.124c0.414-0.095,0.817-0.209,1.214-0.349l0.081-0.023c0.127-0.044,0.253-0.097,0.388-0.148
			L78.569,124.814z"/>
		<path fill="#CC3C66" d="M23.698,127.567c-2.525-0.805-3.934-1.74-3.934-2.743c0-0.004,0-0.009,0-0.013l-5.243-28.837
			c1.204,0.109,2.436,0.235,3.644,0.519c1.162,0.274,2.314,0.526,3.467,0.761L23.698,127.567z"/>
		<path fill="#CC3C66" d="M25.035,97.892c1.339,0.23,2.677,0.429,4.025,0.608l1.176,30.483c-1.658-0.25-3.143-0.531-4.446-0.843
			L25.035,97.892z"/>
		<path fill="#CC3C66" d="M45.002,130.135c-1.843-0.044-3.616-0.113-5.308-0.213l0.107-30.483c1.324,0.053,2.662,0.089,4.018,0.107
			L45.002,130.135z"/>
	</g>
</g>
<text transform="matrix(1 0 0 1 106.3711 76.1016)"><tspan x="0" y="0" fill="#CC3C66" font-family="'PlicataPERSONALUSEONLY'" font-size="50">The Daily </tspan><tspan x="0" y="46" fill="#CC3C66" font-family="'PlicataPERSONALUSEONLY'" font-size="50">Cupcake</tspan></text>
</svg>
