<?xml version="1.0" encoding="utf-8"?>
<!-- Generator: Adobe Illustrator 14.0.0, SVG Export Plug-In . SVG Version: 6.00 Build 43363)  -->
<!DOCTYPE svg PUBLIC "-//W3C//DTD SVG 1.1//EN" "http://www.w3.org/Graphics/SVG/1.1/DTD/svg11.dtd">
<svg version="1.1" id="Layer_1" xmlns="http://www.w3.org/2000/svg" xmlns:xlink="http://www.w3.org/1999/xlink" x="0px" y="0px"
	 width="200px" height="89px" viewBox="-23 7.426 200 89" enable-background="new -23 7.426 200 89" xml:space="preserve">
<g>
	<g>
		<path fill="#FFD478" d="M29.275,17.14l-0.306-0.309l1.18-3.614c0.515,0.451,1.333,0.798,2.096,1.045
			c0.78,0.254,1.542,0.399,2.092,0.399c0.08,0,0.15-0.006,0.224-0.013l-1.612,4.947C31.539,18.993,30.272,18.143,29.275,17.14z"/>
		<path d="M32.684,20.401c-1.579-0.667-2.939-1.589-4.005-2.669l-0.699,2.137c1.155,0.999,2.526,1.849,4.073,2.483
			L32.684,20.401z"/>
		<path d="M24.167,35.446c0,0.085-0.004,0.174-0.015,0.26c-0.006,0.057-0.013,0.122-0.027,0.185
			c-0.014,0.082-0.033,0.165-0.054,0.249c-0.013,0.052-0.031,0.099-0.044,0.146c-0.041,0.114-0.067,0.194-0.1,0.272
			c-0.014,0.036-0.033,0.073-0.049,0.107c-0.12,0.25-0.268,0.49-0.44,0.727c0.451,0.329,0.937,0.626,1.439,0.909
			c0.577,0.224,1.121,0.493,1.63,0.803c0.025,0.01,0.051,0.022,0.076,0.033l0.634-1.948c-1.141-0.483-2.165-1.098-3.05-1.81
			C24.167,35.403,24.169,35.425,24.167,35.446z"/>
		<path d="M32.507,13.461c1.22,0.398,2.286,0.478,2.383,0.175c0.1-0.298-0.809-0.864-2.027-1.262
			c-1.219-0.395-2.284-0.474-2.384-0.174C30.384,12.5,31.288,13.067,32.507,13.461z"/>
		<path fill="#FFD478" d="M30.211,27.99l1.58-4.836L31.73,23.13c-1.492-0.613-2.84-1.427-4.026-2.406l-1.467,4.503l0.304,0.308
			C27.532,26.536,28.802,27.385,30.211,27.99z"/>
		<path fill="#FFD478" d="M21.702,30.968c0.504,0.486,0.736,1.097,0.692,1.832c0.339,0.203,0.625,0.42,0.866,0.651l0.172-2.113
			l-0.063-0.01C22.799,31.24,22.247,31.113,21.702,30.968z"/>
		<path fill="#FFD478" d="M24.44,18.808l0.42-5.18c-0.561,0.185-1.227,0.189-1.55,0.189c-0.002,0-0.002,0-0.004,0
			c-0.253,0-0.519-0.011-0.787-0.035c-0.798-0.064-1.678-0.211-2.283-0.531l-0.306,3.792l0.369,0.229
			C21.5,18.02,22.934,18.55,24.44,18.808z"/>
		<path d="M24.372,19.654c-1.689-0.281-3.228-0.864-4.517-1.665l-0.183,2.241c1.354,0.704,2.885,1.208,4.537,1.466
			L24.372,19.654z"/>
		<path fill="#FFD478" d="M23.731,27.608l0.411-5.071l-0.062-0.01c-1.598-0.249-3.098-0.726-4.478-1.401l-0.382,4.717l0.369,0.229
			C20.785,26.816,22.216,27.345,23.731,27.608z"/>
		<path d="M29.949,28.796c-1.581-0.668-2.938-1.588-4.008-2.668l-0.697,2.137c1.151,1,2.527,1.845,4.071,2.479
			L29.949,28.796z"/>
		<path d="M19.427,27.655c0.142,0.516,0.108,1.046-0.091,1.551c1.264,0.607,2.66,1.057,4.162,1.291l0.168-2.043
			c-1.695-0.283-3.231-0.861-4.523-1.667l-0.015,0.181C19.261,27.19,19.363,27.417,19.427,27.655z"/>
		<path fill="#FFD478" d="M23.802,33.927c0.998,1.006,2.268,1.855,3.675,2.457l1.574-4.837l-0.056-0.024
			c-1.496-0.614-2.847-1.427-4.031-2.405l-1.465,4.503L23.802,33.927z"/>
		<path d="M22.586,12.946c1.278,0.103,2.336-0.07,2.358-0.386c0.025-0.314-0.989-0.651-2.266-0.755
			c-1.276-0.102-2.333,0.068-2.357,0.384C20.297,12.505,21.311,12.842,22.586,12.946z"/>
	</g>
	<path fill="#FFD478" d="M26.013,45.61c-4.195,1.259-6.34-0.531-10.56,0.328c-5.115,1.038-10.458,1.526-15.424-0.303
		c-1.351-0.496-2.452-1.261-3.796-1.765c-1.455-0.542-2.223-0.44-3.767-0.625c-1.067-0.131-2.986-1.981-2.986-1.981
		s0.002-0.011,0.008-0.019c0.359-0.048,0.702-0.069,0.983-0.073c1.649-0.013,3.045,0.429,4.314,1.205
		c0.75,0.462,1.506,1.023,2.542,0.997c0.781-0.021,1.473-0.391,2.239-0.422c2.259-0.084,4.024,1.182,6.203,1.478
		c1.405,0.19,2.433,0.249,3.788-0.106c1.378-0.358,2.911-0.513,4.367-0.419c1.73,0.112,3.291,0.225,4.999-0.117
		c1.237-0.248,2.234-0.716,3.358-1.151c0.856-0.33,1.68-0.614,2.51-0.996c0.725-0.331,1.475-0.413,1.998-0.939
		c0.064-0.062,0.127-0.153,0.197-0.249C28.716,41.887,28.294,44.925,26.013,45.61z"/>
	<path fill="#FFD478" d="M29.866,66.653c-0.282,0.067-0.564,0.128-0.851,0.188l-0.213,0.039c-1.564,0.299-3.133,0.443-4.654,0.583
		c-0.525,0.048-1.049,0.096-1.573,0.151c-0.896,0.092-1.799,0.139-2.685,0.139c-4.407,0-8.237-1.198-11.083-2.242
		c-0.951-0.35-1.888-0.731-2.828-1.115c-2.375-0.97-4.619-1.886-7.042-2.243C-1.404,62.1-1.741,62.06-2.08,62.028l-0.406-0.034
		c-0.254-0.02-0.431-0.035-0.606-0.042l-1.012-0.032l-0.991,0.008c-0.22,0.006-1.005,0.042-1.005,0.042
		c-0.232,0.015-0.963,0.074-0.963,0.074c-0.271,0.023-0.556,0.053-0.839,0.081c-0.375,0.044-0.698,0.085-1.019,0.126
		c0,0-0.592,0.079-0.811,0.112c-0.695,0.102-1.364,0.156-1.99,0.156c-2.568,0-4.658-0.892-6.081-2.545
		c-0.866,0.476-1.704,0.938-2.039,1.123l0,0c-0.1,0.052-0.158,0.088-0.158,0.088s0.01,0.217,0.035,0.554
		c0.001,0.031,0.005,0.063,0.007,0.095l0,0.001c0.002,0.035,0.004,0.069,0.007,0.106l0,0.001c0.097,1.236,0.352,3.676,0.917,4.831
		c1.362,2.796,4.513,1.951,7.694,2.696c8.122,1.905,15.747,2.27,24.341,1.675c5.615-0.387,10.606-0.999,16.184-2.271
		c0.243-0.056,0.475-0.124,0.697-0.199c0.011-0.003,0.023-0.007,0.036-0.011c0.209-0.074,0.41-0.156,0.598-0.247
		c0.021-0.01,0.04-0.018,0.058-0.026c0.181-0.088,0.351-0.183,0.513-0.282c0.025-0.016,0.05-0.029,0.075-0.045
		c0.154-0.096,0.299-0.198,0.434-0.306c0.029-0.02,0.058-0.041,0.086-0.063c0.128-0.104,0.251-0.209,0.366-0.319
		c0.029-0.025,0.062-0.055,0.087-0.084c0.106-0.104,0.208-0.212,0.308-0.32c0.026-0.036,0.057-0.068,0.089-0.104
		c0.087-0.104,0.17-0.209,0.25-0.316c0.03-0.04,0.056-0.079,0.086-0.118c0.072-0.102,0.141-0.203,0.204-0.307
		c0.03-0.045,0.054-0.086,0.079-0.129c0.058-0.098,0.114-0.196,0.168-0.292c0.023-0.045,0.046-0.091,0.068-0.136
		c0.045-0.092,0.091-0.181,0.131-0.27c0.023-0.046,0.039-0.091,0.061-0.135c0.03-0.075,0.062-0.146,0.091-0.216
		c0.021-0.055,0.04-0.107,0.058-0.156c0.023-0.058,0.043-0.116,0.061-0.173C32.771,65.425,31.405,66.281,29.866,66.653z"/>
	<path fill="#FFD478" d="M37.369,53.804c-0.008-0.03-0.017-0.06-0.025-0.09c-0.017-0.074-0.041-0.146-0.067-0.224
		c-0.012-0.034-0.024-0.067-0.039-0.102c-0.032-0.077-0.067-0.154-0.104-0.234c-0.014-0.029-0.028-0.06-0.045-0.09
		c-0.051-0.095-0.104-0.19-0.16-0.286c-0.011-0.015-0.02-0.026-0.027-0.042c-0.145-0.235-0.315-0.47-0.496-0.7
		c-0.006-0.007-0.013-0.015-0.018-0.022c-0.083-0.107-0.171-0.213-0.259-0.316c-0.011-0.015-0.023-0.027-0.036-0.039
		c-0.083-0.102-0.168-0.2-0.257-0.295c-0.01-0.01-0.018-0.021-0.026-0.032c-0.287-0.313-0.567-0.598-0.814-0.836
		c-0.037-0.034-0.067-0.066-0.103-0.098c-0.035-0.034-0.067-0.064-0.101-0.096c-0.328-0.31-0.554-0.502-0.554-0.502
		s-0.708-0.513-1.797-1.169l-0.067,0.119c-0.069,0.13-0.149,0.25-0.246,0.366l-0.273,0.336l-0.462,0.27
		c-0.021,0.013-0.084,0.043-0.158,0.076c-0.155,0.066-0.324,0.121-0.502,0.159l-0.176,0.032c-0.126,0.02-0.274,0.033-0.447,0.033
		c-0.222-0.006-0.344-0.009-0.463-0.009c-1.216,0-2.548,0.194-4.189,0.606c-2.152,0.542-4.155,1.328-6.279,2.16
		c-0.937,0.366-1.874,0.734-2.822,1.081c-4.292,1.563-8.897,2.356-13.683,2.356c-1.709,0-3.471-0.1-5.24-0.301
		c-5.114-0.575-8.72-1.831-12.058-4.205c-0.146-0.102-0.364-0.199-0.588-0.313c-0.062-0.031-0.136-0.069-0.203-0.104
		c-1.352,0.331-2.239,0.574-2.239,0.574s-0.008,0.046-0.018,0.126c-0.002,0.003-0.002,0.007-0.002,0.013
		c-0.005,0.038-0.009,0.082-0.016,0.135c-0.001,0.007-0.001,0.016-0.002,0.024c-0.006,0.052-0.013,0.112-0.018,0.179
		c0,0.009,0,0.014-0.002,0.023c-0.007,0.07-0.013,0.146-0.018,0.229c0,0.007,0,0.014,0,0.023c-0.007,0.085-0.01,0.175-0.016,0.271
		c-0.002,0.008-0.002,0.015-0.002,0.022c-0.004,0.098-0.006,0.204-0.009,0.313c0,0.007,0,0.012,0,0.016
		c-0.018,0.934,0.066,2.213,0.49,3.437c0.005,0.013,0.009,0.024,0.014,0.04c0.048,0.135,0.099,0.268,0.154,0.4
		c0.004,0.01,0.008,0.018,0.011,0.026c0,0,0,0,0.002,0c0.876,2.039,2.823,3.75,7.042,3.121c0.283-0.04,0.565-0.078,0.844-0.115H-9.2
		c0.339-0.044,0.677-0.087,1.013-0.124c0.019-0.003,0.04-0.005,0.061-0.009c0.295-0.032,0.592-0.061,0.888-0.087
		c0.084-0.008,0.17-0.016,0.257-0.023c0.254-0.021,0.508-0.038,0.763-0.052c0.129-0.009,0.253-0.016,0.38-0.021
		c0.226-0.011,0.455-0.021,0.68-0.027c0.155-0.005,0.311-0.005,0.467-0.008c0.203,0,0.408-0.003,0.614,0
		c0.184,0.001,0.367,0.008,0.548,0.014c0.185,0.006,0.366,0.011,0.549,0.021c0.223,0.012,0.444,0.028,0.666,0.048
		c0.15,0.012,0.295,0.021,0.442,0.035c0.375,0.037,0.748,0.081,1.125,0.137c3.685,0.546,6.909,2.225,10.286,3.466
		c4.222,1.549,8.176,2.468,12.821,1.985c2.08-0.218,4.198-0.336,6.242-0.746h0.002c0.257-0.05,0.515-0.104,0.768-0.167
		c2.532-0.611,4.663-3.097,4.663-3.097s3.368-6.063,3.37-7.398C37.402,54.001,37.387,53.905,37.369,53.804z"/>
	<path fill="#FFD478" d="M30.53,47.662L30.53,47.662c-0.005,0.035-0.017,0.065-0.035,0.093c-0.002,0.006-0.007,0.013-0.013,0.017
		c-0.018,0.028-0.043,0.051-0.077,0.068c-0.004,0.002-0.009,0.003-0.012,0.003c-0.032,0.017-0.071,0.029-0.11,0.038
		c-0.015,0.004-0.027,0.007-0.042,0.007c-0.049,0.008-0.104,0.011-0.17,0.009c-1.751-0.058-3.49,0.25-5.137,0.662
		c-3.271,0.826-6.224,2.181-9.31,3.306C9.95,53.932,3.933,54.515-2.334,53.807c-4.506-0.506-7.899-1.574-11.068-3.826
		c-0.744-0.527-2.6-1.089-2.529-1.946c0.006-0.079,0.023-0.16,0.044-0.24c0.007-0.029,0.018-0.056,0.027-0.087
		c0.016-0.052,0.034-0.106,0.056-0.159c0.013-0.033,0.03-0.067,0.044-0.101c0.023-0.05,0.047-0.1,0.073-0.149
		c0.019-0.033,0.037-0.068,0.057-0.101c0.029-0.05,0.06-0.1,0.093-0.149c0.019-0.033,0.041-0.065,0.063-0.098
		c0.037-0.052,0.075-0.104,0.111-0.156c0.023-0.028,0.045-0.058,0.067-0.086c0.048-0.061,0.096-0.119,0.147-0.179
		c0.015-0.018,0.028-0.038,0.045-0.055c0.137-0.159,0.281-0.309,0.423-0.454c0.009-0.009,0.021-0.018,0.029-0.028
		c0.064-0.061,0.126-0.122,0.188-0.179c0.011-0.011,0.021-0.02,0.031-0.03c0.063-0.057,0.123-0.113,0.184-0.165
		c0.006-0.007,0.014-0.013,0.02-0.02c0.267-0.235,0.5-0.419,0.625-0.515h0.001c0.065-0.05,0.102-0.079,0.102-0.079
		s1.806-0.231,2.356-0.642c0.553-0.41,0.364-0.876,1.208-1.271c0.055-0.026,0.125-0.045,0.189-0.068
		c0.667,0.498,1.46,0.978,2.111,1.056c0.438,0.054,0.816,0.083,1.166,0.113c0.851,0.068,1.464,0.118,2.409,0.468
		c0.615,0.232,1.183,0.522,1.781,0.832c0.631,0.326,1.284,0.664,2.018,0.936c2.339,0.861,4.858,1.278,7.7,1.278
		c2.421,0,5.021-0.3,8.185-0.942c0.75-0.153,1.483-0.226,2.245-0.226c0.863,0,1.645,0.091,2.471,0.186
		c0.809,0.095,1.647,0.195,2.548,0.195c1.16,0,2.229-0.16,3.368-0.502c0.741-0.22,1.356-0.653,1.812-1.228
		c1.249,0.679,2.359,1.769,2.46,2.338c0,0.004,0,0.008,0.002,0.011C30.538,47.581,30.54,47.624,30.53,47.662z"/>
	<path fill="#FFD478" d="M21.321,38.347c0.018-0.013,0.035-0.027,0.049-0.04c0.033-0.026,0.066-0.051,0.097-0.076
		c0.08-0.069,0.161-0.137,0.238-0.207c0.038-0.03,0.071-0.06,0.105-0.092c0.077-0.066,0.148-0.134,0.218-0.201
		c0.035-0.034,0.065-0.065,0.101-0.098c0.066-0.068,0.132-0.134,0.197-0.204c0.029-0.03,0.056-0.063,0.085-0.095
		c0.063-0.07,0.125-0.14,0.181-0.209c0.018-0.025,0.035-0.048,0.057-0.073c0.185-0.24,0.337-0.483,0.456-0.726
		c0.013-0.032,0.03-0.065,0.044-0.097c0.028-0.063,0.047-0.126,0.067-0.188c0.014-0.042,0.028-0.08,0.041-0.123
		c0.017-0.058,0.027-0.118,0.036-0.178c0.01-0.044,0.014-0.088,0.02-0.13c0.007-0.058,0.008-0.116,0.01-0.173
		c0-0.044-0.002-0.087-0.006-0.132c-0.002-0.057-0.008-0.112-0.017-0.168c-0.007-0.046-0.023-0.09-0.033-0.135
		c-0.012-0.054-0.026-0.11-0.046-0.162c-0.018-0.048-0.042-0.093-0.063-0.139c-0.042-0.084-0.09-0.168-0.147-0.25
		c-0.04-0.056-0.074-0.113-0.119-0.169c0,0.001,0,0.001,0,0.001c-0.323-0.392-0.844-0.762-1.587-1.103
		c0.063-0.013,0.125-0.022,0.187-0.036c0.033-0.127,0.049-0.244,0.06-0.359c0-0.012,0-0.025,0-0.037
		c0.063-0.977-0.674-1.542-1.743-1.878l-0.047,0.057c-0.139,0.164-0.287,0.325-0.463,0.49c-1.292,1.215-3.209,1.781-6.037,1.781
		c-1.458,0-2.939-0.153-4.13-0.277c-0.408-0.041-0.788-0.08-1.128-0.109c-0.093-0.006-0.224-0.021-0.358-0.043l-0.366-0.074
		l-0.088-0.024c-0.447-0.104-0.972-0.3-1.53-0.507c-1.225-0.455-2.614-0.972-4.451-0.972c-1.37,0-2.771,0.287-4.285,0.876
		l-1.297,0.502l-0.078-0.081l-0.072,0.014c-0.092,0.014-0.18,0.024-0.262,0.029l-0.229,0.009c-0.093,0-0.171-0.003-0.249-0.01
		l-0.17-0.015l-0.143-0.029c-0.11-0.021-0.211-0.05-0.31-0.083l-0.125-0.039l-0.184-0.088c-0.08-0.04-0.151-0.09-0.226-0.139
		c-0.029,0.059-0.064,0.11-0.091,0.171c-1.026,2.268,0.278,3.897,2.919,4.679c-0.959-0.031-1.925-0.087-2.914-0.163
		c-3.589-0.27-6.072,2.038-4.319,2.968c0.003,0,0.007,0.003,0.011,0.005c0.059,0.03,0.122,0.061,0.189,0.088
		c0.016,0.006,0.029,0.014,0.045,0.019c0.06,0.023,0.129,0.045,0.197,0.065c0.021,0.008,0.042,0.014,0.065,0.022
		c0.093,0.026,0.189,0.048,0.295,0.069l0.001-0.002c-0.056,0.104-0.104,0.204-0.147,0.302c0.218-0.018,0.431-0.032,0.627-0.034
		h0.076c1.694,0,3.228,0.435,4.69,1.329l0.262,0.165c0.604,0.38,1.128,0.708,1.768,0.708l0.05,0
		c0.296-0.008,0.611-0.092,0.947-0.184c0.379-0.102,0.81-0.219,1.28-0.238c0.084-0.002,0.169-0.004,0.253-0.004
		c1.357,0,2.525,0.413,3.654,0.81c0.829,0.291,1.608,0.564,2.441,0.678c0.752,0.102,1.253,0.146,1.718,0.146
		c0.588,0,1.143-0.074,1.745-0.231c1.192-0.309,2.482-0.474,3.733-0.474c0.301,0,0.604,0.01,0.899,0.029l0.166,0.011
		c0.794,0.05,1.546,0.1,2.287,0.1c0.87,0,1.607-0.067,2.328-0.213c0.903-0.181,1.685-0.498,2.517-0.832
		c0.23-0.094,0.461-0.187,0.701-0.28c0.236-0.091,0.473-0.18,0.706-0.268c0.608-0.226,1.182-0.442,1.757-0.705
		c0.278-0.129,0.554-0.223,0.801-0.307c0.414-0.14,0.741-0.251,0.951-0.461c0.031-0.037,0.064-0.083,0.102-0.134l0.009-0.015
		C24.802,38.99,23.11,38.506,21.321,38.347z"/>
	<path fill="#FFD478" d="M18.145,29.559c-0.087,0.104-0.184,0.209-0.296,0.316c-2.01,1.888-7.022,1.051-9.665,0.828
		c-0.06-0.003-0.123-0.01-0.188-0.023c-0.021-0.002-0.045-0.009-0.066-0.012c-0.043-0.009-0.088-0.017-0.13-0.025
		c-0.015-0.004-0.03-0.009-0.044-0.013c-2.015-0.479-5.524-2.896-11.598-0.536c0,0-0.002-0.003-0.004-0.004
		c-0.067,0.028-0.133,0.051-0.203,0.079c-0.098,0.04-0.192,0.075-0.277,0.104c-0.029,0.01-0.057,0.018-0.083,0.026
		c-0.056,0.018-0.11,0.038-0.16,0.05c-0.029,0.008-0.056,0.015-0.083,0.021c-0.042,0.011-0.086,0.021-0.123,0.026
		c-0.028,0.007-0.052,0.011-0.075,0.015c-0.037,0.005-0.071,0.008-0.103,0.011c-0.021,0-0.041,0.002-0.059,0.002
		c-0.034,0-0.061-0.002-0.088-0.005c-0.013-0.001-0.03-0.001-0.042-0.004c-0.028-0.006-0.058-0.014-0.082-0.024
		c-0.005-0.002-0.014-0.004-0.018-0.007c-0.057-0.028-0.098-0.072-0.119-0.127c-0.002-0.004-0.006-0.011-0.007-0.016
		c-0.005-0.023-0.013-0.048-0.015-0.073c0-0.011,0-0.017-0.001-0.027c0-0.025,0-0.053,0.003-0.083c0-0.009,0.002-0.018,0.003-0.027
		c0.005-0.032,0.01-0.064,0.022-0.099c0.001-0.008,0.002-0.017,0.005-0.025c0.011-0.041,0.026-0.08,0.042-0.123
		c0-0.004,0.003-0.009,0.003-0.013c0.056-0.145,0.141-0.308,0.241-0.478c0.006-0.007,0.009-0.014,0.012-0.02
		c0.031-0.05,0.059-0.099,0.092-0.149c0.007-0.013,0.016-0.023,0.024-0.035c0.03-0.045,0.06-0.09,0.089-0.138
		c0.011-0.015,0.02-0.027,0.029-0.042c0.03-0.045,0.062-0.091,0.095-0.137c0.007-0.013,0.018-0.027,0.028-0.041
		c0.035-0.045,0.066-0.092,0.101-0.138c0.011-0.013,0.018-0.024,0.028-0.04c0.038-0.053,0.079-0.107,0.12-0.157
		c0.017-0.026,0.038-0.048,0.054-0.073c0.026-0.034,0.053-0.069,0.079-0.102c0.029-0.039,0.058-0.075,0.089-0.114
		c0.012-0.012,0.023-0.026,0.034-0.04c0.034-0.045,0.066-0.085,0.102-0.129c0.004-0.004,0.008-0.008,0.011-0.013
		c0.417-0.513,0.772-0.9,0.772-0.9s0.012-0.007,0.034-0.023c0.042-0.027,0.123-0.079,0.229-0.148
		c0.012-0.007,0.021-0.014,0.036-0.021c0.055-0.039,0.122-0.079,0.19-0.124c0.004-0.002,0.01-0.004,0.016-0.009
		c0.073-0.047,0.153-0.097,0.24-0.153c0.004-0.002,0.008-0.003,0.013-0.009c0.084-0.052,0.172-0.107,0.268-0.166
		c0.011-0.007,0.019-0.012,0.029-0.02c0.09-0.057,0.185-0.114,0.281-0.175c0.017-0.009,0.031-0.019,0.047-0.029
		c0.097-0.059,0.195-0.119,0.296-0.181c0.017-0.009,0.033-0.021,0.052-0.03c0.102-0.063,0.204-0.124,0.308-0.186
		c0.019-0.013,0.039-0.023,0.057-0.035c0.104-0.061,0.208-0.123,0.312-0.183c0.022-0.013,0.04-0.024,0.061-0.035
		c0.105-0.061,0.205-0.119,0.311-0.18c0.021-0.011,0.043-0.023,0.067-0.036c0.102-0.059,0.202-0.115,0.3-0.167
		c0.02-0.012,0.04-0.022,0.058-0.032c0.285-0.156,0.553-0.292,0.793-0.405c0.045-0.022,0.093-0.045,0.138-0.066
		c0.045-0.019,0.084-0.034,0.127-0.052c0.044-0.019,0.092-0.041,0.131-0.056c0,0,0.002,0,0.002,0.001
		c0.101-0.04,0.197-0.071,0.276-0.091c2.923-0.713,4.464-1.142,3.812-3.75c-0.502-2.002-0.927-4.014,1.821-5.473
		c2.863-1.517,4.814-0.364,5.063,2.082c-0.361-0.737-0.624-1.794-1.386-1.568c0,0.004,0.002,0.008,0.005,0.011
		c-0.047,0.015-0.091,0.015-0.141,0.04c-3.395,1.556,1.208,7.042,2.803,8.032c1.966,1.222,6.45,3.053,5.076,5.387
		c-0.004,0.008-0.008,0.017-0.013,0.026c-0.056,0.092-0.123,0.188-0.201,0.281C18.183,29.511,18.164,29.535,18.145,29.559z"/>
	<g class="casing">
		<path d="M16.882,71.711c0.878-0.081,1.732-0.17,2.566-0.266l0.072,19.73c-1.052,0.132-2.19,0.245-3.405,0.337
			L16.882,71.711z"/>
		<path d="M12.173,72.064c0.43-0.025,0.855-0.049,1.294-0.078c0.428-0.029,0.845-0.063,1.261-0.094l0.067,19.71
			c-1.079,0.063-2.205,0.111-3.384,0.142L12.173,72.064z"/>
		<path d="M1.287,91.521c-1.214-0.089-2.354-0.201-3.405-0.331l0.069-19.364c0.854,0.09,1.717,0.162,2.583,0.223
			L1.287,91.521z"/>
		<path d="M23.665,90.447c-0.83,0.201-1.773,0.386-2.837,0.547l0.766-19.814c0.87-0.117,1.72-0.245,2.563-0.383
			L23.665,90.447z"/>
		<path d="M10.075,91.767c-0.471,0.006-0.946,0.009-1.43,0.009c-0.445,0-0.886-0.003-1.32-0.007l0.07-19.531
			c0.855-0.011,1.723-0.031,2.606-0.066L10.075,91.767z"/>
		<path d="M27.398,88.351c0,0,0,0.004,0,0.007c0,0.623-0.858,1.209-2.397,1.713l1.341-19.659
			c1.146-0.217,2.287-0.455,3.438-0.717c0.264-0.061,0.521-0.133,0.774-0.223l0.052-0.015c0.081-0.028,0.161-0.062,0.247-0.094
			L27.398,88.351z"/>
		<path d="M-7.597,90.107c-1.61-0.514-2.509-1.109-2.509-1.749c0-0.003,0-0.007,0-0.009l-3.344-18.392
			c0.768,0.07,1.554,0.15,2.324,0.331c0.741,0.175,1.476,0.336,2.211,0.485L-7.597,90.107z"/>
		<path d="M-6.744,71.181c0.854,0.146,1.708,0.273,2.567,0.388l0.75,19.44c-1.057-0.159-2.004-0.338-2.835-0.537
			L-6.744,71.181z"/>
		<path d="M5.99,91.744c-1.175-0.028-2.306-0.072-3.386-0.136l0.069-19.441c0.844,0.034,1.698,0.057,2.562,0.068
			L5.99,91.744z"/>
	</g>
</g>
<text transform="matrix(1 0 0 1 42.3713 60.9734)" class="logofont" enable-background="new    "><tspan x="0" y="0"  font-size="30">The Daily </tspan><tspan x="0" y="24"  font-size="30">Cupcake </tspan></text>
</svg>
