<?xml version="1.0" encoding="utf-8"?>
<!-- Generator: Adobe Illustrator 14.0.0, SVG Export Plug-In . SVG Version: 6.00 Build 43363)  -->
<!DOCTYPE svg PUBLIC "-//W3C//DTD SVG 1.1//EN" "http://www.w3.org/Graphics/SVG/1.1/DTD/svg11.dtd">
<svg version="1.1" id="Layer_1" xmlns="http://www.w3.org/2000/svg" xmlns:xlink="http://www.w3.org/1999/xlink" x="0px" y="0px"
	 width="286px" height="135.852px" viewBox="0 0 286 135.852" enable-background="new 0 0 286 135.852" xml:space="preserve">
<path fill="#FFD478" d="M81.513,13.157l-0.48-0.484l1.851-5.666c0.808,0.707,2.09,1.252,3.286,1.639
	c1.224,0.398,2.418,0.626,3.28,0.626c0.126,0,0.237-0.01,0.352-0.02l-2.528,7.757C85.063,16.063,83.075,14.731,81.513,13.157z
	 M82.98,30.17l2.477-7.584l-0.095-0.037c-2.34-0.962-4.454-2.237-6.314-3.772l-2.301,7.061l0.478,0.483
	C78.781,27.89,80.771,29.221,82.98,30.17z M69.638,34.839c0.79,0.763,1.154,1.72,1.086,2.873c0.531,0.318,0.979,0.658,1.357,1.021
	l0.271-3.314l-0.099-0.015C71.358,35.266,70.493,35.067,69.638,34.839z M73.932,15.774l0.658-8.122
	c-0.879,0.29-1.923,0.296-2.431,0.296c-0.003,0-0.003,0-0.006,0c-0.397,0-0.814-0.017-1.234-0.053
	c-1.252-0.101-2.631-0.332-3.579-0.833l-0.48,5.944l0.579,0.358C69.322,14.537,71.57,15.368,73.932,15.774z M72.82,29.572
	l0.644-7.952l-0.098-0.015c-2.505-0.39-4.857-1.138-7.021-2.198l-0.599,7.397l0.579,0.358C68.2,28.329,70.445,29.159,72.82,29.572z
	 M72.931,39.479c1.564,1.578,3.556,2.909,5.763,3.852l2.468-7.584l-0.088-0.037c-2.345-0.963-4.463-2.238-6.32-3.771l-2.298,7.06
	L72.931,39.479z"/>
<path fill="#CC3C66" d="M85.867,21.327c-2.424-0.992-4.574-2.325-6.385-3.892l1.095-3.351c1.672,1.695,3.806,3.14,6.281,4.186
	L85.867,21.327z M73.503,41.861c0,0.133-0.007,0.273-0.023,0.408c-0.009,0.09-0.021,0.19-0.042,0.29
	c-0.022,0.129-0.052,0.259-0.085,0.389c-0.021,0.082-0.049,0.156-0.07,0.23c-0.063,0.178-0.105,0.304-0.157,0.427
	c-0.022,0.056-0.052,0.114-0.077,0.169c-0.187,0.39-0.42,0.768-0.69,1.139c0.706,0.516,1.468,0.983,2.256,1.425
	c0.904,0.352,1.757,0.774,2.556,1.26c0.039,0.016,0.08,0.035,0.118,0.051l0.995-3.055c-1.789-0.758-3.394-1.721-4.783-2.837
	C73.503,41.793,73.507,41.827,73.503,41.861z M86.579,7.389c1.913,0.625,3.585,0.749,3.738,0.274
	c0.156-0.466-1.269-1.354-3.179-1.979C85.226,5.066,83.557,4.942,83.4,5.41C83.251,5.882,84.669,6.771,86.579,7.389z M73.825,17.099
	c-2.648-0.441-5.06-1.355-7.083-2.611l-0.286,3.514c2.123,1.104,4.524,1.894,7.115,2.298L73.825,17.099z M82.57,31.433
	c-2.479-1.048-4.607-2.489-6.285-4.184L75.192,30.6c1.805,1.568,3.962,2.893,6.383,3.888L82.57,31.433z M66.071,29.645
	c0.221,0.809,0.169,1.639-0.143,2.431c1.981,0.952,4.171,1.658,6.526,2.024l0.264-3.203c-2.658-0.445-5.066-1.351-7.093-2.614
	l-0.023,0.284C65.812,28.915,65.971,29.272,66.071,29.645z M71.024,6.58c2.004,0.161,3.663-0.109,3.698-0.604
	c0.04-0.492-1.551-1.021-3.553-1.184c-2.001-0.16-3.657,0.108-3.695,0.602C67.435,5.889,69.026,6.417,71.024,6.58z"/>
<path fill="#FFD478" d="M76.398,57.797c-6.578,1.975-9.942-0.833-16.558,0.514c-8.02,1.628-16.397,2.392-24.185-0.476
	c-2.119-0.777-3.844-1.976-5.953-2.767c-2.281-0.85-3.486-0.691-5.906-0.981c-1.674-0.205-4.682-3.106-4.682-3.106
	s0.003-0.017,0.012-0.03c0.564-0.075,1.101-0.108,1.542-0.114c2.586-0.02,4.775,0.673,6.765,1.889
	c1.177,0.724,2.361,1.604,3.985,1.562c1.225-0.032,2.31-0.613,3.51-0.662c3.542-0.133,6.311,1.854,9.726,2.318
	c2.204,0.297,3.814,0.389,5.939-0.166c2.161-0.562,4.564-0.805,6.847-0.659c2.713,0.176,5.159,0.354,7.838-0.182
	c1.939-0.389,3.503-1.123,5.265-1.806c1.343-0.517,2.634-0.962,3.936-1.56c1.136-0.519,2.313-0.648,3.133-1.473
	c0.099-0.097,0.199-0.239,0.308-0.39C80.635,51.96,79.975,56.723,76.398,57.797z M82.44,90.792c-0.442,0.106-0.884,0.2-1.334,0.293
	l-0.335,0.063c-2.453,0.468-4.912,0.695-7.298,0.913c-0.823,0.075-1.646,0.15-2.467,0.237c-1.404,0.145-2.82,0.218-4.21,0.218
	c-6.91,0-12.916-1.878-17.378-3.516c-1.491-0.548-2.961-1.146-4.433-1.748c-3.725-1.521-7.243-2.958-11.042-3.517
	c-0.535-0.082-1.063-0.145-1.595-0.196l-0.636-0.052c-0.399-0.032-0.676-0.055-0.951-0.067l-1.587-0.051l-1.555,0.013
	c-0.344,0.009-1.575,0.066-1.575,0.066c-0.364,0.023-1.51,0.117-1.51,0.117c-0.424,0.036-0.872,0.082-1.316,0.127
	c-0.588,0.068-1.095,0.132-1.598,0.198c0,0-0.927,0.123-1.271,0.176c-1.09,0.159-2.14,0.244-3.12,0.244
	c-4.028,0-7.303-1.398-9.534-3.989c-1.358,0.745-2.671,1.47-3.197,1.76l0,0c-0.156,0.081-0.247,0.137-0.247,0.137
	s0.016,0.34,0.054,0.869c0.003,0.049,0.008,0.098,0.012,0.148c0,0.001,0.001,0.003,0.001,0.003c0.004,0.053,0.006,0.107,0.01,0.166
	l0.001,0.001c0.153,1.939,0.552,5.763,1.437,7.576c2.136,4.382,7.076,3.058,12.064,4.227c12.735,2.988,24.691,3.559,38.167,2.626
	c8.805-0.606,16.63-1.566,25.375-3.561c0.381-0.088,0.745-0.196,1.093-0.313c0.017-0.005,0.036-0.011,0.056-0.017
	c0.329-0.116,0.642-0.246,0.938-0.387c0.033-0.016,0.062-0.028,0.091-0.041c0.283-0.139,0.55-0.286,0.804-0.443
	c0.039-0.024,0.078-0.045,0.117-0.07c0.241-0.15,0.469-0.311,0.68-0.48c0.046-0.031,0.091-0.064,0.134-0.098
	c0.202-0.162,0.394-0.327,0.575-0.5c0.046-0.04,0.096-0.087,0.137-0.132c0.166-0.164,0.326-0.333,0.483-0.503
	c0.041-0.055,0.09-0.106,0.14-0.163c0.136-0.163,0.267-0.328,0.393-0.496c0.047-0.063,0.088-0.124,0.135-0.185
	c0.113-0.161,0.22-0.32,0.32-0.482c0.047-0.069,0.085-0.135,0.124-0.201c0.091-0.154,0.179-0.309,0.264-0.458
	c0.036-0.07,0.072-0.143,0.107-0.214c0.071-0.143,0.143-0.282,0.205-0.422c0.036-0.072,0.062-0.142,0.095-0.211
	c0.048-0.118,0.098-0.229,0.143-0.339c0.033-0.086,0.063-0.168,0.091-0.245c0.036-0.091,0.068-0.182,0.096-0.27
	C86.993,88.866,84.852,90.209,82.44,90.792z M94.203,70.646c-0.011-0.047-0.026-0.094-0.039-0.141
	c-0.026-0.117-0.063-0.23-0.105-0.351c-0.019-0.053-0.038-0.105-0.062-0.16c-0.049-0.12-0.104-0.242-0.163-0.367
	c-0.021-0.046-0.044-0.094-0.07-0.14c-0.079-0.149-0.163-0.299-0.251-0.45c-0.017-0.022-0.03-0.041-0.043-0.066
	c-0.228-0.368-0.494-0.736-0.777-1.098c-0.009-0.011-0.02-0.023-0.029-0.034c-0.13-0.169-0.267-0.334-0.406-0.496
	c-0.018-0.023-0.036-0.043-0.056-0.062c-0.13-0.16-0.264-0.313-0.403-0.462c-0.017-0.016-0.028-0.034-0.042-0.051
	c-0.449-0.49-0.889-0.938-1.276-1.311c-0.058-0.053-0.106-0.103-0.162-0.154c-0.055-0.053-0.106-0.101-0.159-0.15
	c-0.514-0.486-0.869-0.789-0.869-0.789s-1.109-0.804-2.817-1.833l-0.106,0.187c-0.108,0.203-0.234,0.392-0.385,0.574l-0.429,0.527
	l-0.726,0.422c-0.033,0.021-0.131,0.068-0.248,0.119c-0.243,0.104-0.507,0.19-0.787,0.25l-0.276,0.049
	c-0.198,0.031-0.43,0.052-0.7,0.052c-0.349-0.01-0.539-0.014-0.726-0.014c-1.907,0-3.995,0.304-6.569,0.951
	c-3.374,0.849-6.516,2.082-9.845,3.386c-1.47,0.576-2.938,1.152-4.426,1.696c-6.73,2.452-13.95,3.695-21.454,3.695
	c-2.68,0-5.443-0.157-8.216-0.472c-8.019-0.902-13.673-2.872-18.907-6.592c-0.229-0.161-0.571-0.312-0.922-0.492
	c-0.096-0.048-0.213-0.107-0.317-0.162c-2.12,0.519-3.511,0.901-3.511,0.901s-0.013,0.072-0.027,0.197
	c-0.004,0.005-0.004,0.012-0.004,0.02c-0.008,0.059-0.014,0.128-0.026,0.211c-0.001,0.012-0.001,0.025-0.003,0.038
	c-0.009,0.081-0.02,0.176-0.028,0.281c0,0.013-0.001,0.022-0.003,0.036c-0.011,0.109-0.02,0.229-0.028,0.358
	c0,0.011-0.001,0.022-0.001,0.036c-0.011,0.134-0.016,0.275-0.024,0.426c-0.003,0.012-0.003,0.023-0.003,0.034
	c-0.007,0.155-0.01,0.322-0.015,0.491c0,0.01,0,0.019,0,0.025c-0.027,1.464,0.103,3.47,0.769,5.389
	c0.008,0.019,0.014,0.037,0.022,0.062c0.075,0.211,0.154,0.419,0.242,0.628c0.006,0.015,0.013,0.026,0.018,0.041c0,0,0,0,0.003,0
	c1.373,3.197,4.425,5.88,11.042,4.894c0.444-0.063,0.885-0.123,1.324-0.181h0.003c0.532-0.069,1.061-0.136,1.588-0.194
	c0.029-0.005,0.062-0.008,0.095-0.014c0.463-0.051,0.928-0.095,1.392-0.137c0.132-0.011,0.267-0.024,0.403-0.036
	c0.399-0.032,0.797-0.059,1.196-0.081c0.202-0.014,0.397-0.024,0.595-0.032c0.355-0.018,0.713-0.032,1.067-0.044
	c0.243-0.007,0.488-0.007,0.732-0.012c0.319,0,0.64-0.004,0.962,0c0.288,0.001,0.576,0.012,0.859,0.022
	c0.29,0.008,0.574,0.016,0.862,0.032c0.348,0.017,0.696,0.045,1.043,0.074c0.235,0.019,0.464,0.033,0.693,0.056
	c0.589,0.058,1.173,0.127,1.764,0.215c5.777,0.855,10.833,3.487,16.128,5.433c6.619,2.43,12.82,3.869,20.102,3.113
	c3.261-0.341,6.582-0.526,9.787-1.169h0.004c0.403-0.079,0.807-0.164,1.203-0.262c3.97-0.958,7.312-4.856,7.312-4.856
	s5.28-9.505,5.284-11.6C94.255,70.955,94.232,70.804,94.203,70.646z M83.479,60.82c-0.004-0.005-0.004-0.012-0.004-0.018
	c-0.158-0.892-1.899-2.602-3.858-3.666c-0.713,0.901-1.679,1.58-2.84,1.926c-1.786,0.537-3.462,0.788-5.281,0.788
	c-1.412,0-2.727-0.157-3.995-0.306c-1.296-0.149-2.521-0.292-3.874-0.292c-1.194,0-2.344,0.113-3.52,0.354
	c-4.961,1.007-9.037,1.477-12.833,1.477c-4.458,0-8.406-0.654-12.074-2.004c-1.15-0.427-2.173-0.957-3.163-1.467
	c-0.938-0.485-1.828-0.941-2.792-1.304c-1.482-0.55-2.443-0.628-3.778-0.735c-0.547-0.045-1.141-0.092-1.827-0.176
	c-1.021-0.123-2.265-0.876-3.311-1.657c-0.101,0.037-0.21,0.067-0.296,0.108c-1.322,0.618-1.026,1.35-1.894,1.992
	c-0.862,0.645-3.694,1.007-3.694,1.007s-0.057,0.045-0.159,0.124h-0.002c-0.198,0.149-0.563,0.438-0.981,0.807
	c-0.01,0.01-0.021,0.02-0.031,0.031c-0.094,0.082-0.188,0.169-0.288,0.259c-0.015,0.017-0.031,0.031-0.049,0.047
	c-0.096,0.089-0.192,0.185-0.294,0.281c-0.013,0.015-0.031,0.029-0.045,0.044c-0.223,0.227-0.449,0.463-0.664,0.712
	c-0.026,0.027-0.047,0.057-0.07,0.086c-0.08,0.093-0.156,0.185-0.231,0.28c-0.034,0.045-0.068,0.092-0.104,0.136
	c-0.057,0.082-0.116,0.163-0.174,0.244c-0.034,0.051-0.068,0.101-0.099,0.153c-0.052,0.078-0.1,0.156-0.145,0.234
	c-0.032,0.052-0.06,0.107-0.089,0.159c-0.042,0.078-0.08,0.157-0.115,0.234c-0.023,0.053-0.051,0.106-0.07,0.158
	c-0.034,0.083-0.062,0.169-0.088,0.25c-0.013,0.048-0.031,0.09-0.042,0.136c-0.032,0.126-0.059,0.253-0.068,0.377
	c-0.112,1.344,2.797,2.225,3.965,3.052c4.97,3.531,10.29,5.206,17.354,5.999c9.829,1.109,19.261,0.195,28.159-3.045
	c4.838-1.764,9.468-3.888,14.596-5.183c2.583-0.647,5.31-1.129,8.056-1.038c0.104,0.003,0.189-0.003,0.267-0.015
	c0.023-0.001,0.042-0.006,0.065-0.011c0.062-0.013,0.123-0.032,0.173-0.059c0.005,0,0.013-0.003,0.019-0.006
	c0.053-0.026,0.092-0.062,0.121-0.106c0.009-0.008,0.016-0.018,0.02-0.027c0.026-0.045,0.046-0.092,0.055-0.146l0,0
	C83.495,60.956,83.492,60.888,83.479,60.82z M69.04,46.409c0.028-0.02,0.055-0.042,0.077-0.062c0.052-0.042,0.104-0.081,0.153-0.12
	c0.126-0.108,0.253-0.215,0.374-0.324c0.059-0.048,0.11-0.094,0.165-0.145c0.121-0.104,0.232-0.211,0.342-0.315
	c0.053-0.053,0.102-0.103,0.157-0.154c0.104-0.107,0.207-0.211,0.308-0.32c0.046-0.047,0.088-0.1,0.134-0.148
	c0.099-0.111,0.196-0.22,0.284-0.329c0.029-0.039,0.055-0.076,0.09-0.114c0.29-0.376,0.53-0.758,0.714-1.138
	c0.021-0.05,0.048-0.101,0.07-0.151c0.043-0.1,0.075-0.198,0.105-0.295c0.021-0.065,0.044-0.126,0.063-0.192
	c0.027-0.09,0.043-0.185,0.057-0.279c0.016-0.069,0.022-0.137,0.031-0.204c0.011-0.089,0.014-0.181,0.017-0.27
	c0-0.07-0.003-0.138-0.01-0.207c-0.003-0.089-0.013-0.176-0.026-0.264c-0.012-0.071-0.036-0.141-0.052-0.211
	c-0.019-0.085-0.042-0.173-0.072-0.254c-0.028-0.075-0.067-0.146-0.1-0.218c-0.065-0.132-0.14-0.264-0.231-0.393
	c-0.062-0.088-0.116-0.177-0.186-0.265c0,0.001,0,0.001,0,0.001c-0.507-0.614-1.323-1.194-2.489-1.728
	c0.099-0.021,0.196-0.035,0.293-0.057c0.052-0.199,0.077-0.383,0.095-0.562c0-0.02,0-0.04,0-0.059
	c0.099-1.531-1.058-2.417-2.733-2.945l-0.074,0.089c-0.218,0.256-0.449,0.509-0.727,0.768c-2.026,1.905-5.032,2.793-9.464,2.793
	c-2.288,0-4.609-0.239-6.477-0.433c-0.64-0.065-1.235-0.126-1.769-0.172c-0.145-0.01-0.351-0.033-0.561-0.068l-0.574-0.115
	l-0.139-0.038c-0.701-0.163-1.524-0.471-2.399-0.795c-1.921-0.714-4.1-1.524-6.98-1.524c-2.148,0-4.344,0.45-6.719,1.374
	l-2.034,0.787l-0.123-0.126l-0.112,0.021c-0.145,0.022-0.282,0.038-0.411,0.046l-0.359,0.015c-0.145,0-0.267-0.006-0.39-0.017
	l-0.267-0.022l-0.224-0.046c-0.172-0.033-0.332-0.078-0.485-0.13l-0.195-0.061l-0.288-0.138c-0.126-0.062-0.238-0.141-0.355-0.218
	c-0.046,0.092-0.1,0.173-0.142,0.268c-1.609,3.556,0.435,6.11,4.578,7.336c-1.505-0.047-3.019-0.136-4.57-0.254
	c-5.628-0.423-9.52,3.195-6.772,4.653c0.005,0.001,0.011,0.005,0.017,0.008c0.092,0.047,0.191,0.094,0.296,0.137
	c0.025,0.01,0.045,0.022,0.071,0.03c0.093,0.037,0.202,0.07,0.309,0.102c0.033,0.013,0.066,0.023,0.103,0.035
	c0.146,0.041,0.297,0.076,0.463,0.109l0.003-0.004c-0.088,0.163-0.163,0.319-0.231,0.474c0.341-0.029,0.676-0.051,0.983-0.054h0.119
	c2.656,0,5.061,0.682,7.353,2.084l0.41,0.258c0.949,0.596,1.769,1.11,2.772,1.11l0.078-0.001c0.465-0.012,0.958-0.145,1.484-0.288
	c0.595-0.159,1.27-0.344,2.008-0.373c0.132-0.004,0.266-0.006,0.397-0.006c2.128,0,3.959,0.646,5.729,1.27
	c1.299,0.456,2.521,0.885,3.827,1.063c1.179,0.16,1.965,0.229,2.695,0.229c0.922,0,1.791-0.117,2.736-0.363
	c1.868-0.483,3.892-0.742,5.854-0.742c0.472,0,0.947,0.015,1.41,0.046l0.26,0.017c1.246,0.079,2.424,0.156,3.585,0.156
	c1.364,0,2.521-0.106,3.65-0.334c1.417-0.283,2.642-0.78,3.947-1.304c0.361-0.147,0.723-0.293,1.1-0.439
	c0.37-0.144,0.741-0.283,1.106-0.42c0.953-0.355,1.854-0.694,2.755-1.106c0.437-0.202,0.868-0.348,1.256-0.48
	c0.648-0.22,1.162-0.395,1.491-0.724c0.049-0.057,0.101-0.13,0.159-0.211l0.014-0.022C74.499,47.417,71.846,46.658,69.04,46.409z
	 M64.148,32.517c0.123-0.147,0.228-0.296,0.315-0.441c0.007-0.013,0.013-0.027,0.02-0.041c2.155-3.66-4.876-6.531-7.958-8.446
	c-2.502-1.554-9.717-10.155-4.396-12.595c0.077-0.039,0.146-0.039,0.221-0.062c-0.006-0.004-0.009-0.01-0.009-0.017
	c1.194-0.354,1.606,1.302,2.173,2.458c-0.391-3.836-3.449-5.644-7.939-3.264c-4.308,2.288-3.642,5.442-2.855,8.582
	c1.023,4.091-1.394,4.762-5.977,5.88c-0.124,0.029-0.274,0.08-0.432,0.142c0-0.002-0.003-0.002-0.003-0.002
	c-0.062,0.025-0.137,0.059-0.205,0.088c-0.069,0.028-0.13,0.053-0.2,0.082c-0.07,0.033-0.145,0.068-0.216,0.104
	c-0.377,0.175-0.797,0.39-1.243,0.634c-0.029,0.017-0.061,0.032-0.091,0.05c-0.154,0.083-0.311,0.17-0.471,0.262
	c-0.037,0.02-0.071,0.039-0.104,0.057c-0.167,0.096-0.324,0.187-0.488,0.282c-0.032,0.018-0.06,0.035-0.094,0.055
	c-0.165,0.094-0.328,0.192-0.49,0.288c-0.029,0.018-0.06,0.035-0.089,0.054c-0.163,0.097-0.322,0.194-0.482,0.291
	c-0.029,0.015-0.055,0.033-0.081,0.048c-0.158,0.097-0.313,0.192-0.464,0.283c-0.025,0.017-0.048,0.033-0.074,0.045
	c-0.152,0.095-0.299,0.186-0.441,0.275c-0.016,0.012-0.028,0.02-0.045,0.031c-0.15,0.091-0.288,0.179-0.42,0.26
	c-0.007,0.006-0.013,0.01-0.02,0.013c-0.137,0.088-0.262,0.167-0.377,0.241c-0.01,0.007-0.018,0.01-0.024,0.014
	c-0.107,0.071-0.212,0.134-0.298,0.195c-0.024,0.009-0.037,0.021-0.057,0.033c-0.165,0.107-0.292,0.188-0.358,0.231
	c-0.035,0.026-0.054,0.036-0.054,0.036s-0.557,0.606-1.211,1.411c-0.004,0.008-0.009,0.015-0.016,0.021
	c-0.057,0.069-0.107,0.132-0.161,0.202c-0.017,0.021-0.034,0.044-0.052,0.063c-0.049,0.06-0.094,0.118-0.14,0.177
	c-0.041,0.052-0.083,0.107-0.123,0.16c-0.026,0.039-0.059,0.074-0.085,0.114c-0.063,0.079-0.128,0.163-0.187,0.247
	c-0.016,0.022-0.027,0.041-0.044,0.061c-0.053,0.073-0.103,0.145-0.158,0.216c-0.015,0.023-0.032,0.045-0.044,0.064
	c-0.052,0.072-0.101,0.144-0.149,0.215c-0.015,0.023-0.029,0.042-0.046,0.065c-0.045,0.075-0.093,0.145-0.14,0.216
	c-0.011,0.018-0.026,0.034-0.037,0.054c-0.05,0.08-0.096,0.156-0.144,0.234c-0.005,0.01-0.009,0.02-0.02,0.031
	c-0.156,0.269-0.29,0.524-0.377,0.75c-0.001,0.006-0.006,0.013-0.006,0.02c-0.024,0.068-0.048,0.13-0.065,0.193
	c-0.004,0.013-0.006,0.026-0.008,0.039c-0.018,0.054-0.026,0.106-0.034,0.155c-0.001,0.015-0.006,0.029-0.006,0.042
	c-0.005,0.047-0.005,0.091-0.005,0.13c0.001,0.017,0.001,0.026,0.001,0.042c0.004,0.039,0.015,0.078,0.024,0.114
	c0.001,0.008,0.007,0.02,0.01,0.026c0.034,0.086,0.097,0.155,0.187,0.199c0.006,0.004,0.02,0.008,0.028,0.011
	c0.037,0.015,0.084,0.028,0.128,0.037c0.02,0.005,0.046,0.005,0.067,0.007c0.044,0.005,0.086,0.008,0.138,0.008
	c0.03,0,0.061-0.003,0.093-0.003c0.051-0.005,0.104-0.009,0.161-0.018c0.036-0.007,0.074-0.013,0.118-0.023
	c0.058-0.008,0.126-0.024,0.194-0.041c0.042-0.011,0.084-0.022,0.13-0.034c0.077-0.019,0.162-0.05,0.25-0.078
	c0.042-0.013,0.086-0.026,0.13-0.042c0.134-0.046,0.282-0.099,0.436-0.163c0.109-0.042,0.213-0.079,0.317-0.123
	c0.002,0.002,0.005,0.005,0.007,0.007c9.523-3.701,15.025,0.09,18.185,0.841c0.023,0.006,0.047,0.013,0.07,0.019
	c0.066,0.014,0.136,0.027,0.203,0.04c0.034,0.004,0.073,0.016,0.105,0.019c0.101,0.02,0.2,0.031,0.295,0.036
	c4.144,0.352,12.002,1.663,15.154-1.298c0.176-0.167,0.328-0.332,0.465-0.495C64.091,32.593,64.12,32.555,64.148,32.517z"/>
<path fill="#CC3C66" d="M62.08,98.724c1.376-0.127,2.716-0.267,4.024-0.417l0.113,30.937c-1.649,0.207-3.435,0.385-5.339,0.529
	L62.08,98.724z M53.504,130.133c1.848-0.047,3.613-0.122,5.306-0.222l-0.106-30.904c-0.651,0.049-1.306,0.102-1.977,0.147
	c-0.689,0.046-1.356,0.083-2.029,0.123L53.504,130.133z M36.448,99.251c-1.36-0.094-2.711-0.208-4.051-0.348l-0.109,30.363
	c1.65,0.202,3.436,0.38,5.34,0.518L36.448,99.251z M73.487,97.289c-1.322,0.216-2.654,0.416-4.019,0.6l-1.201,31.069
	c1.667-0.255,3.146-0.542,4.448-0.857L73.487,97.289z M51.294,99.446c-1.385,0.053-2.746,0.085-4.086,0.103l-0.11,30.624
	c0.681,0.007,1.371,0.011,2.069,0.011c0.758,0,1.503-0.004,2.242-0.013L51.294,99.446z M83.986,95.041
	c-0.135,0.052-0.261,0.104-0.388,0.148l-0.081,0.023c-0.396,0.14-0.8,0.254-1.214,0.349c-1.807,0.41-3.595,0.784-5.392,1.124
	l-2.102,30.825c2.414-0.789,3.759-1.709,3.759-2.687c0-0.004,0-0.01,0-0.01L83.986,95.041z M21.632,97.254
	c-1.153-0.234-2.306-0.486-3.467-0.761c-1.208-0.283-2.44-0.409-3.644-0.519l5.243,28.837c0,0.004,0,0.009,0,0.013
	c0,1.003,1.409,1.938,3.934,2.743L21.632,97.254z M25.79,128.141c1.303,0.312,2.788,0.593,4.446,0.843L29.06,98.5
	c-1.348-0.18-2.686-0.378-4.025-0.608L25.79,128.141z M43.819,99.546c-1.356-0.019-2.694-0.055-4.018-0.107l-0.107,30.483
	c1.691,0.1,3.465,0.169,5.308,0.213L43.819,99.546z"/>
<g>
	<path fill="#CC3C66" d="M145.993,64.523c-0.412,0.274-0.901,0.439-1.465,0.494c-0.564,0.056-1.142,0.035-1.732-0.062
		c-0.593-0.096-1.17-0.247-1.733-0.454c-0.564-0.206-1.052-0.434-1.465-0.681c-0.715,0-1.458,0.021-2.228,0.062
		c-0.771,0.041-1.5,0.09-2.188,0.145c-0.742,0.083-1.39,0.124-1.938,0.124c-0.881,0.056-1.782,0.103-2.703,0.145
		c-0.922,0.041-1.836,0.104-2.744,0.186c0.109,0.056,0.248,0.165,0.413,0.331c0.467,0.467,0.673,0.928,0.618,1.381
		c-0.055,0.454-0.233,0.833-0.535,1.135c-1.872,1.816-3.549,3.508-5.035,5.075c-1.484,1.567-2.901,3.156-4.249,4.766
		s-2.668,3.294-3.961,5.054c-1.293,1.762-2.669,3.729-4.126,5.9c-0.11,0.192-0.316,0.393-0.619,0.599s-0.742,0.31-1.32,0.31h-0.289
		c-0.688-0.055-1.396-0.262-2.125-0.619s-1.245-0.825-1.547-1.402c-0.303-0.634-0.275-1.225,0.082-1.774
		c1.431-2.118,2.771-4.044,4.023-5.776c1.251-1.732,2.523-3.383,3.816-4.951c1.292-1.568,2.654-3.115,4.085-4.642
		s3.012-3.143,4.745-4.849l-4.415,0.66c-1.953,0.275-3.879,0.537-5.776,0.785c-1.897,0.246-3.59,0.371-5.075,0.371
		c-0.192,0-0.365,0-0.516,0c-0.151,0-0.31-0.014-0.475-0.042c-0.495-0.026-0.942-0.157-1.341-0.392
		c-0.399-0.233-0.736-0.522-1.011-0.867c-0.275-0.344-0.502-0.715-0.682-1.113c-0.179-0.398-0.281-0.764-0.309-1.094
		c-0.083-0.633,0.096-1.155,0.536-1.568c0.33-0.33,0.777-0.557,1.341-0.681s1.176-0.117,1.836,0.021
		c0.357,0.055,1.107,0.055,2.249,0c1.142-0.055,2.482-0.151,4.023-0.289c1.54-0.138,3.177-0.289,4.909-0.454
		c1.733-0.165,3.369-0.33,4.91-0.495c1.127-0.109,2.214-0.227,3.26-0.351c1.045-0.124,2.007-0.227,2.888-0.31
		s1.657-0.151,2.332-0.207c0.674-0.055,1.217-0.083,1.629-0.083c0.303,0,0.605-0.006,0.908-0.021
		c0.303-0.013,0.604-0.034,0.907-0.062c1.54-0.055,3.136-0.083,4.786-0.083s3.178,0.22,4.58,0.66c0.083,0.028,0.31,0.11,0.681,0.248
		c0.372,0.138,0.777,0.337,1.218,0.598c0.439,0.262,0.838,0.578,1.196,0.95c0.357,0.371,0.578,0.804,0.661,1.299
		c0.055,0.22,0.026,0.522-0.083,0.907C146.831,63.795,146.516,64.166,145.993,64.523z"/>
	<path fill="#CC3C66" d="M145.167,63.285c-0.221,0.633-0.694,1.348-1.423,2.146c-0.729,0.798-1.547,1.65-2.455,2.558
		c-0.908,0.908-1.836,1.864-2.785,2.868c-0.949,1.005-1.727,2.042-2.332,3.114c1.596-1.65,3.122-2.914,4.581-3.795
		c1.457-0.881,2.764-1.438,3.92-1.672c1.154-0.232,2.124-0.178,2.908,0.166s1.313,0.9,1.588,1.67
		c0.166,0.496,0.097,1.061-0.206,1.692c-0.303,0.634-0.722,1.286-1.258,1.96c-0.537,0.674-1.135,1.341-1.795,2.001
		s-1.266,1.279-1.815,1.857c-0.551,0.577-0.984,1.086-1.3,1.526c-0.316,0.439-0.406,0.757-0.269,0.949
		c0.083,0.109,0.289,0.103,0.619-0.021s0.735-0.323,1.218-0.598c0.48-0.275,1.003-0.599,1.567-0.971
		c0.563-0.37,1.107-0.756,1.63-1.155c0.522-0.397,1.004-0.776,1.444-1.134c0.439-0.357,0.77-0.674,0.989-0.949
		c0.358-0.413,0.702-0.66,1.032-0.742c0.33-0.083,0.584-0.048,0.764,0.103c0.178,0.151,0.247,0.399,0.206,0.743
		c-0.042,0.344-0.269,0.763-0.681,1.258c-0.413,0.495-0.984,1.148-1.713,1.96s-1.52,1.616-2.372,2.414s-1.706,1.492-2.558,2.084
		c-0.854,0.592-1.609,0.929-2.27,1.011c-0.634,0.082-1.3,0.055-2.002-0.082c-0.701-0.139-1.334-0.393-1.897-0.765
		c-0.564-0.37-0.997-0.858-1.3-1.465c-0.304-0.604-0.371-1.348-0.207-2.228c0.083-0.467,0.29-0.962,0.619-1.486
		c0.331-0.521,0.716-1.037,1.156-1.546c0.439-0.509,0.9-1.004,1.382-1.485c0.48-0.481,0.9-0.908,1.259-1.279
		c0.356-0.371,0.633-0.688,0.825-0.949c0.191-0.262,0.232-0.434,0.123-0.516c-0.164-0.082-0.522,0.063-1.072,0.434
		c-0.551,0.371-1.203,0.887-1.96,1.547s-1.575,1.41-2.455,2.249c-0.881,0.839-1.739,1.664-2.578,2.475
		c-0.84,0.813-1.609,1.575-2.311,2.29c-0.702,0.716-1.245,1.28-1.631,1.692c-0.274,0.275-0.653,0.502-1.135,0.681
		c-0.48,0.179-0.982,0.274-1.506,0.288c-0.522,0.015-1.017-0.048-1.485-0.186c-0.467-0.137-0.797-0.397-0.99-0.783
		c-0.137-0.248,0.063-0.88,0.599-1.898c0.536-1.017,1.258-2.228,2.166-3.631c0.907-1.402,1.932-2.908,3.074-4.518
		c1.141-1.609,2.249-3.122,3.321-4.538c1.072-1.418,2.049-2.648,2.93-3.693c0.88-1.045,1.513-1.705,1.897-1.98
		c0.578-0.412,1.238-0.708,1.981-0.887c0.742-0.179,1.429-0.248,2.063-0.207c0.633,0.042,1.142,0.18,1.526,0.412
		C145.181,62.508,145.305,62.846,145.167,63.285z"/>
	<path fill="#CC3C66" d="M159.608,68.071c0.797-0.056,1.615-0.007,2.455,0.145c0.839,0.151,1.588,0.386,2.248,0.701
		c0.661,0.316,1.183,0.722,1.568,1.218c0.385,0.494,0.536,1.072,0.454,1.732c-0.083,0.495-0.317,1.072-0.701,1.732
		c-0.387,0.66-1.005,1.308-1.857,1.939c-0.854,0.634-1.974,1.204-3.362,1.713c-1.39,0.509-3.116,0.873-5.179,1.093
		c-0.082,0.522-0.068,0.978,0.042,1.362c0.109,0.385,0.356,0.646,0.742,0.783c0.88,0.386,1.822,0.475,2.826,0.269
		s2.008-0.591,3.012-1.155c1.005-0.563,1.967-1.218,2.889-1.96c0.921-0.742,1.754-1.458,2.497-2.146
		c0.356-0.357,0.729-0.584,1.113-0.681s0.688-0.076,0.907,0.062c0.22,0.139,0.316,0.386,0.289,0.743s-0.262,0.798-0.701,1.32
		c-0.742,0.908-1.664,1.83-2.765,2.765s-2.311,1.773-3.631,2.516c-1.32,0.743-2.71,1.321-4.167,1.733
		c-1.458,0.413-2.93,0.536-4.415,0.372c-0.578-0.082-1.169-0.248-1.774-0.495c-0.605-0.248-1.142-0.619-1.609-1.114
		c-0.468-0.496-0.832-1.114-1.093-1.856s-0.337-1.65-0.228-2.724c0.11-1.073,0.495-2.187,1.156-3.342
		c0.66-1.156,1.485-2.214,2.476-3.178c0.989-0.962,2.083-1.773,3.279-2.434C157.277,68.525,158.453,68.154,159.608,68.071z
		 M159.897,71.867c-0.331,0.082-0.668,0.24-1.011,0.475c-0.345,0.234-0.682,0.529-1.012,0.887c-0.329,0.357-0.639,0.764-0.929,1.218
		c-0.288,0.453-0.557,0.914-0.804,1.382c1.265-0.247,2.344-0.633,3.238-1.155s1.526-1.024,1.898-1.506
		c0.371-0.481,0.46-0.866,0.269-1.155C161.354,71.723,160.805,71.675,159.897,71.867z"/>
	<path fill="#CC3C66" d="M213.082,60.521c1.237,0.99,2.151,2.132,2.743,3.425s0.914,2.62,0.97,3.981
		c0.056,1.362-0.131,2.702-0.558,4.022c-0.426,1.32-1.038,2.49-1.835,3.508c-0.854,1.101-1.823,2.166-2.909,3.197
		c-1.087,1.032-2.256,2.015-3.508,2.95c-1.251,0.936-2.564,1.795-3.939,2.578c-1.376,0.785-2.779,1.465-4.209,2.043
		c-1.485,0.605-3.149,1.121-4.992,1.548c-1.844,0.426-3.741,0.639-5.694,0.639c-1.376,0-2.717-0.131-4.022-0.392
		c-1.307-0.262-2.538-0.681-3.693-1.259c-0.936-0.522-1.444-1.196-1.526-2.021c-0.056-0.716,0.233-1.279,0.866-1.692
		c0.357-0.219,0.756-0.329,1.197-0.329c0.438,0,0.894,0.123,1.36,0.371c0.661,0.331,1.362,0.551,2.105,0.66
		c0.742,0.11,1.499,0.138,2.27,0.083c0.77-0.055,1.547-0.173,2.33-0.352c0.784-0.179,1.562-0.377,2.332-0.598
		c2.888-0.88,5.624-2.104,8.211-3.672c6.271-3.906,9.695-7.95,10.273-12.131c0.026-0.192,0.048-0.446,0.063-0.764
		c0.013-0.315,0-0.646-0.042-0.989c-0.041-0.344-0.123-0.674-0.248-0.991c-0.123-0.315-0.309-0.584-0.557-0.804
		c-0.439-0.386-1.018-0.612-1.732-0.682c-0.716-0.068-1.349-0.104-1.898-0.104c-2.585,0-5.31,0.399-8.169,1.197
		c-0.028,0-0.049,0.007-0.063,0.021c-0.015,0.015-0.034,0.021-0.062,0.021c0.439,0.139,0.853,0.344,1.237,0.619
		c0.386,0.275,0.66,0.605,0.825,0.99c0.303,0.66,0.262,1.266-0.123,1.815c-0.165,0.275-0.386,0.599-0.661,0.97
		c-0.274,0.371-0.605,0.805-0.989,1.3c-0.552,0.742-1.204,1.623-1.96,2.64c-0.758,1.019-1.479,2.043-2.166,3.074
		c-0.688,1.032-1.286,2.009-1.796,2.93c-0.509,0.922-0.804,1.671-0.886,2.248c-0.056,0.413-0.263,0.785-0.619,1.115
		c-0.358,0.329-0.922,0.495-1.692,0.495h-0.495c-0.439-0.055-0.873-0.158-1.3-0.31c-0.426-0.151-0.804-0.337-1.135-0.558
		c-0.329-0.219-0.598-0.48-0.804-0.783c-0.207-0.303-0.296-0.646-0.269-1.031c0.027-0.661,0.158-1.286,0.392-1.878
		c0.233-0.591,0.516-1.162,0.846-1.713c0.331-0.55,0.688-1.072,1.073-1.567c0.385-0.495,0.757-0.976,1.114-1.444
		c0.055-0.082,0.123-0.165,0.206-0.247c0.082-0.083,0.151-0.179,0.206-0.289c0.439-0.522,0.881-1.045,1.32-1.567
		c0.44-0.522,0.894-1.031,1.362-1.527c0.66-0.77,1.292-1.512,1.897-2.229c0.604-0.715,1.155-1.416,1.65-2.104
		c-2.091,0.799-4.085,1.814-5.982,3.053c-1.898,1.238-3.673,2.655-5.323,4.25c-0.33,0.33-0.736,0.51-1.217,0.537
		c-0.481,0.027-0.977-0.035-1.485-0.186c-0.51-0.151-0.99-0.365-1.444-0.641c-0.454-0.274-0.819-0.549-1.093-0.824
		c-0.496-0.496-0.729-0.983-0.702-1.465s0.192-0.873,0.496-1.176c1.457-1.431,3.079-2.676,4.868-3.734
		c1.788-1.059,3.555-1.96,5.302-2.703c1.747-0.742,3.384-1.333,4.91-1.774c1.526-0.44,2.743-0.77,3.651-0.99
		c1.265-0.302,2.6-0.563,4.002-0.784c1.403-0.22,2.799-0.323,4.188-0.31c1.389,0.015,2.729,0.193,4.023,0.537
		C210.867,59.07,212.036,59.668,213.082,60.521z"/>
	<path fill="#CC3C66" d="M228.802,68.071c1.183-0.083,2.214,0.159,3.095,0.722c0.88,0.564,1.513,1.328,1.897,2.29
		c0.386-0.385,0.75-0.735,1.094-1.052s0.667-0.557,0.97-0.723c0.578-0.356,1.189-0.584,1.836-0.68c0.646-0.097,1.231-0.097,1.753,0
		c0.522,0.096,0.942,0.295,1.259,0.598s0.447,0.688,0.392,1.155c-0.027,0.304-0.233,0.708-0.618,1.217
		c-0.386,0.509-0.846,1.053-1.383,1.63c-0.535,0.578-1.106,1.17-1.712,1.774c-0.605,0.605-1.155,1.17-1.65,1.691
		c-0.495,0.523-0.887,0.97-1.176,1.342c-0.289,0.37-0.378,0.625-0.269,0.763c0.22,0.274,0.605,0.33,1.155,0.165
		s1.148-0.446,1.795-0.846c0.646-0.398,1.279-0.839,1.897-1.32c0.619-0.481,1.107-0.914,1.466-1.3
		c0.356-0.357,0.701-0.599,1.031-0.722c0.33-0.124,0.584-0.124,0.763,0c0.18,0.123,0.269,0.344,0.269,0.66s-0.151,0.722-0.453,1.217
		c-0.221,0.33-0.571,0.75-1.053,1.258c-0.481,0.51-1.045,1.039-1.691,1.59c-0.646,0.55-1.341,1.093-2.084,1.629
		c-0.742,0.537-1.485,1.019-2.228,1.444c-0.743,0.427-1.451,0.771-2.125,1.031c-0.675,0.262-1.259,0.364-1.754,0.31
		c-1.128-0.109-2.021-0.426-2.682-0.949c-0.66-0.522-1.031-1.168-1.114-1.938c-0.99,0.66-2.028,1.272-3.115,1.836
		s-2.132,0.983-3.136,1.258c-1.005,0.274-1.933,0.344-2.785,0.207c-0.853-0.139-1.526-0.592-2.021-1.362
		c-0.578-0.88-0.873-1.85-0.888-2.909c-0.014-1.058,0.2-2.124,0.641-3.197c0.439-1.072,1.072-2.11,1.897-3.115
		c0.825-1.004,1.795-1.904,2.908-2.702c1.114-0.798,2.338-1.465,3.673-2.001C225.988,68.504,227.371,68.182,228.802,68.071z
		 M229.586,76.282c0.109-0.192,0.289-0.454,0.536-0.784s0.46-0.688,0.64-1.072c0.178-0.385,0.269-0.764,0.269-1.135
		s-0.206-0.682-0.619-0.929c-0.44-0.274-0.983-0.33-1.63-0.165s-1.313,0.469-2.001,0.908c-0.688,0.439-1.349,0.963-1.981,1.567
		c-0.632,0.605-1.154,1.217-1.567,1.836c-0.412,0.619-0.681,1.196-0.805,1.733c-0.123,0.536-0.007,0.942,0.352,1.217
		c0.273,0.221,0.66,0.269,1.154,0.145c0.496-0.124,1.053-0.351,1.672-0.682c0.619-0.329,1.271-0.734,1.96-1.217
		C228.252,77.225,228.925,76.75,229.586,76.282z"/>
	<path fill="#CC3C66" d="M250.834,70.795c0,0.412-0.213,0.936-0.64,1.567c-0.427,0.634-0.942,1.293-1.547,1.98
		c-0.605,0.688-1.225,1.376-1.857,2.063s-1.155,1.299-1.567,1.836c-0.413,0.536-0.646,0.977-0.701,1.319
		c-0.056,0.346,0.191,0.517,0.743,0.517c0.521,0,1.106-0.18,1.753-0.537c0.646-0.356,1.293-0.783,1.939-1.278
		c0.646-0.495,1.244-0.997,1.794-1.506c0.551-0.509,0.991-0.929,1.321-1.259c0.302-0.33,0.611-0.516,0.929-0.557
		c0.315-0.042,0.549,0.027,0.7,0.206c0.151,0.18,0.192,0.461,0.125,0.846c-0.069,0.386-0.338,0.839-0.806,1.361
		c-0.55,0.633-1.251,1.361-2.104,2.187c-0.854,0.825-1.823,1.589-2.909,2.29c-1.087,0.701-2.264,1.273-3.527,1.713
		c-1.267,0.44-2.572,0.605-3.92,0.495c-1.073-0.083-1.802-0.412-2.188-0.991c-0.384-0.577-0.522-1.277-0.412-2.103
		s0.427-1.748,0.949-2.766s1.162-2.015,1.919-2.991c0.756-0.976,1.567-1.892,2.434-2.743c0.867-0.854,1.712-1.555,2.537-2.105
		c0.386-0.246,0.86-0.418,1.424-0.516c0.563-0.096,1.114-0.123,1.65-0.082s0.996,0.158,1.383,0.352
		C250.641,70.285,250.834,70.52,250.834,70.795z M252.525,63.203c0.357,0.137,0.701,0.433,1.032,0.887
		c0.329,0.453,0.542,0.955,0.639,1.506s0.027,1.1-0.206,1.65s-0.723,1.004-1.465,1.361s-1.443,0.502-2.104,0.434
		c-0.661-0.068-1.225-0.275-1.692-0.619s-0.818-0.805-1.052-1.383c-0.234-0.576-0.296-1.182-0.187-1.814
		c0.11-0.66,0.316-1.176,0.619-1.547c0.303-0.372,0.681-0.633,1.135-0.785c0.454-0.15,0.963-0.199,1.527-0.145
		C251.336,62.805,251.921,62.955,252.525,63.203z"/>
	<path fill="#CC3C66" d="M261.231,62.955c0.331-0.248,0.812-0.454,1.444-0.619s1.259-0.254,1.878-0.268
		c0.618-0.014,1.168,0.048,1.65,0.186c0.48,0.138,0.749,0.371,0.804,0.701c0.027,0.165-0.123,0.516-0.453,1.053
		c-0.33,0.535-0.771,1.189-1.32,1.959c-0.551,0.771-1.183,1.63-1.897,2.579c-0.716,0.948-1.432,1.911-2.146,2.888
		c-0.716,0.977-1.409,1.939-2.083,2.889c-0.675,0.949-1.259,1.83-1.754,2.641c-0.495,0.812-0.86,1.513-1.094,2.104
		c-0.234,0.591-0.268,1.011-0.103,1.259c0.165,0.246,0.529,0.282,1.094,0.103c0.563-0.179,1.223-0.502,1.979-0.97
		s1.568-1.053,2.435-1.754s1.685-1.437,2.455-2.207c0.495-0.522,0.949-0.853,1.361-0.99c0.413-0.138,0.723-0.124,0.929,0.041
		s0.282,0.461,0.228,0.888c-0.056,0.427-0.304,0.928-0.743,1.506c-0.44,0.577-1.046,1.237-1.815,1.979
		c-0.771,0.743-1.582,1.452-2.435,2.126s-1.686,1.278-2.496,1.815c-0.812,0.536-1.465,0.887-1.96,1.052
		c-0.99,0.303-1.926,0.468-2.806,0.495c-0.881,0.027-1.664-0.069-2.352-0.289s-1.23-0.543-1.631-0.97
		c-0.397-0.426-0.598-0.955-0.598-1.588c0-0.715,0.221-1.63,0.66-2.744c0.44-1.114,1.012-2.303,1.713-3.568
		c0.7-1.265,1.484-2.559,2.351-3.879c0.867-1.32,1.727-2.552,2.579-3.692c0.853-1.142,1.645-2.132,2.373-2.971
		C260.207,63.869,260.792,63.285,261.231,62.955z"/>
	<path fill="#CC3C66" d="M279.428,68.896c0.247-0.248,0.611-0.398,1.093-0.454c0.481-0.055,0.97-0.026,1.466,0.083
		c0.494,0.109,0.94,0.309,1.341,0.598c0.397,0.289,0.625,0.668,0.68,1.135c0.055,0.303-0.164,0.963-0.66,1.98
		c-0.494,1.018-1.169,2.215-2.021,3.59c-0.853,1.376-1.836,2.833-2.949,4.374c-1.115,1.54-2.263,2.991-3.446,4.353
		c-1.183,1.361-2.366,2.551-3.548,3.568c-1.184,1.018-2.256,1.665-3.218,1.939c-1.294,0.385-2.524,0.564-3.693,0.537
		c-1.169-0.028-2.208-0.207-3.115-0.537c-0.908-0.33-1.656-0.763-2.249-1.299c-0.591-0.537-0.942-1.107-1.052-1.713
		c-0.083-0.357,0.007-0.729,0.268-1.114c0.262-0.386,0.599-0.716,1.012-0.989c0.412-0.276,0.853-0.455,1.32-0.537
		s0.881,0,1.237,0.248c0.247,0.164,0.447,0.404,0.599,0.722c0.151,0.316,0.296,0.626,0.433,0.929
		c0.138,0.302,0.304,0.563,0.496,0.783s0.48,0.303,0.866,0.248c0.797-0.11,1.685-0.627,2.661-1.547
		c0.976-0.922,1.987-2.057,3.032-3.404c-0.963,0.633-1.987,1.087-3.073,1.361c-1.088,0.274-2.139,0.18-3.157-0.289
		c-0.742-0.33-1.196-0.872-1.36-1.63c-0.166-0.756-0.131-1.614,0.103-2.578c0.234-0.963,0.633-1.974,1.196-3.033
		c0.563-1.059,1.203-2.063,1.919-3.012c0.715-0.948,1.457-1.78,2.228-2.496c0.77-0.716,1.499-1.224,2.188-1.526
		c0.66-0.275,1.271-0.427,1.836-0.454c0.563-0.027,1.059,0.021,1.485,0.145c0.426,0.124,0.776,0.296,1.052,0.516
		s0.468,0.427,0.578,0.618c0.109,0.221-0.028,0.593-0.413,1.115c-0.386,0.521-0.88,1.128-1.485,1.814
		c-0.605,0.688-1.258,1.417-1.96,2.188c-0.701,0.771-1.307,1.492-1.814,2.166c-0.51,0.674-0.867,1.252-1.074,1.732
		c-0.206,0.481-0.103,0.791,0.31,0.929c0.331,0.138,0.729,0.131,1.197-0.021c0.467-0.15,0.955-0.393,1.465-0.722
		c0.509-0.33,1.011-0.723,1.506-1.176c0.495-0.455,0.935-0.929,1.32-1.424c0.578-0.853,1.127-1.685,1.65-2.496
		c0.522-0.812,1.017-1.554,1.485-2.229c0.467-0.674,0.894-1.272,1.278-1.794C278.822,69.57,279.152,69.172,279.428,68.896z"/>
	<path fill="#CC3C66" d="M115.048,128.188c-2.366,0-4.45-0.324-6.251-0.97c-1.802-0.647-3.267-1.631-4.395-2.95
		c-1.128-1.32-1.836-2.848-2.125-4.58c-0.288-1.733-0.158-3.645,0.393-5.735c0.468-1.76,1.113-3.355,1.939-4.786
		c0.825-1.431,1.732-2.695,2.723-3.796c0.99-1.1,2.021-2.057,3.095-2.867c1.072-0.812,2.104-1.507,3.094-2.084
		c1.54-0.881,3.171-1.623,4.89-2.228c1.719-0.605,3.446-1.06,5.179-1.362c1.732-0.302,3.425-0.44,5.075-0.412
		c1.65,0.027,3.177,0.233,4.58,0.618c2.476,0.66,4.455,1.844,5.941,3.549c0.77,0.825,1.161,1.809,1.176,2.95
		c0.014,1.142-0.338,2.222-1.053,3.238c-1.128,1.596-3.122,2.724-5.982,3.384c-0.551,0.138-1.107,0.11-1.671-0.083
		c-0.563-0.191-1.053-0.521-1.465-0.99c-0.33-0.384-0.564-0.77-0.701-1.154c-0.139-0.386-0.139-0.77,0-1.156
		c0.055-0.191,0.199-0.433,0.433-0.722s0.64-0.501,1.218-0.639c0.247-0.056,0.57-0.146,0.97-0.269
		c0.397-0.124,0.784-0.275,1.154-0.454c0.372-0.179,0.695-0.398,0.971-0.661c0.273-0.261,0.426-0.557,0.453-0.886
		c0.027-0.304-0.151-0.571-0.536-0.806c-0.386-0.232-0.812-0.419-1.279-0.557c-0.798-0.22-1.836-0.282-3.115-0.186
		s-2.682,0.371-4.208,0.825s-3.122,1.087-4.786,1.898c-1.665,0.812-3.26,1.809-4.786,2.991c-1.527,1.183-2.937,2.565-4.229,4.146
		c-1.293,1.582-2.325,3.362-3.095,5.344c-0.412,1.018-0.585,1.953-0.516,2.805c0.068,0.854,0.377,1.583,0.929,2.188
		c0.742,0.853,1.814,1.389,3.218,1.609c1.403,0.22,2.984,0.096,4.745-0.372c1.21-0.33,2.365-0.757,3.466-1.278
		c1.1-0.522,2.139-1.079,3.115-1.672c0.977-0.591,1.884-1.203,2.724-1.836c0.839-0.632,1.588-1.21,2.248-1.733
		c0.138-0.137,0.282-0.254,0.434-0.351c0.15-0.096,0.295-0.199,0.433-0.31c0.496-0.384,1.031-0.529,1.609-0.433
		s1.1,0.419,1.568,0.97c0.274,0.357,0.495,0.763,0.66,1.217s0.247,0.922,0.247,1.403s-0.09,0.955-0.269,1.423
		c-0.179,0.469-0.474,0.881-0.886,1.238c-2.146,1.925-4.354,3.39-6.623,4.394c-2.27,1.005-4.848,1.657-7.736,1.96
		c-0.523,0.055-1.031,0.097-1.526,0.124S115.516,128.188,115.048,128.188z"/>
	<path fill="#CC3C66" d="M144.425,107.352c0.742-0.522,1.533-0.811,2.373-0.866c0.839-0.055,1.561,0.027,2.166,0.247
		c0.604,0.221,1.017,0.523,1.237,0.907c0.221,0.387,0.11,0.771-0.33,1.156c-0.303,0.247-0.735,0.604-1.3,1.072
		c-0.564,0.469-1.169,0.984-1.814,1.547c-0.647,0.564-1.294,1.156-1.94,1.775c-0.646,0.618-1.203,1.21-1.67,1.773
		c-0.469,0.564-0.813,1.08-1.031,1.547c-0.222,0.469-0.222,0.825,0,1.073c0.191,0.248,0.611,0.193,1.258-0.165
		c0.646-0.356,1.402-0.9,2.269-1.63c0.867-0.729,1.802-1.561,2.807-2.496c1.003-0.935,1.974-1.863,2.908-2.785
		c0.935-0.921,1.774-1.753,2.518-2.496c0.742-0.742,1.293-1.279,1.65-1.609c0.55-0.495,1.065-0.681,1.547-0.557
		c0.48,0.124,0.887,0.393,1.217,0.805c0.331,0.413,0.544,0.901,0.641,1.464c0.096,0.564,0.033,1.053-0.187,1.466
		c-0.165,0.247-0.412,0.604-0.742,1.072s-0.709,0.984-1.135,1.547c-0.427,0.564-0.854,1.135-1.279,1.713
		c-0.427,0.578-0.812,1.121-1.155,1.63s-0.619,0.956-0.825,1.341c-0.206,0.386-0.282,0.633-0.228,0.743
		c0.139,0.329,0.496,0.392,1.073,0.185c0.577-0.206,1.224-0.549,1.939-1.031c0.715-0.481,1.45-1.031,2.207-1.65
		c0.756-0.619,1.383-1.176,1.878-1.671c0.439-0.412,0.838-0.667,1.196-0.764c0.357-0.096,0.618-0.062,0.784,0.104
		c0.165,0.165,0.206,0.434,0.124,0.805c-0.083,0.372-0.345,0.805-0.784,1.3c-0.44,0.495-1.114,1.17-2.022,2.021
		c-0.907,0.854-1.938,1.679-3.094,2.476c-1.155,0.799-2.394,1.472-3.714,2.021c-1.32,0.551-2.613,0.784-3.879,0.702
		c-0.55-0.028-0.922-0.233-1.113-0.619c-0.192-0.385-0.255-0.867-0.186-1.444c0.067-0.577,0.261-1.217,0.577-1.918
		c0.315-0.702,0.708-1.383,1.177-2.043c-0.166,0.083-0.496,0.352-0.991,0.805c-0.495,0.454-1.107,0.977-1.836,1.567
		c-0.729,0.593-1.521,1.197-2.373,1.815c-0.853,0.619-1.698,1.135-2.536,1.548c-0.84,0.412-1.645,0.674-2.415,0.784
		c-0.771,0.109-1.43-0.056-1.979-0.495c-1.128-0.88-1.774-1.892-1.94-3.033c-0.164-1.142,0.069-2.352,0.702-3.631
		c0.633-1.278,1.65-2.605,3.054-3.981C140.629,110.103,142.362,108.728,144.425,107.352z"/>
	<path fill="#CC3C66" d="M180.239,107.64c0.275,0.908,0.336,1.844,0.186,2.807c-0.151,0.963-0.461,1.926-0.929,2.888
		c-0.468,0.963-1.038,1.892-1.712,2.785c-0.674,0.895-1.39,1.713-2.146,2.455c-0.757,0.743-1.514,1.389-2.27,1.939
		s-1.438,0.948-2.042,1.197c-0.605,0.247-1.334,0.433-2.187,0.557c-0.853,0.123-1.706,0.15-2.559,0.082s-1.644-0.255-2.372-0.557
		c-0.729-0.303-1.273-0.77-1.63-1.403c-0.578,0.825-1.143,1.616-1.691,2.372c-0.55,0.757-1.046,1.438-1.485,2.043
		c-0.44,0.604-0.818,1.106-1.135,1.506c-0.316,0.398-0.529,0.667-0.64,0.805c-0.303,0.33-0.742,0.557-1.32,0.681
		s-1.155,0.145-1.733,0.062c-0.577-0.082-1.079-0.255-1.506-0.516c-0.426-0.261-0.653-0.598-0.681-1.011
		c-0.027-0.221,0.123-0.646,0.454-1.278c0.33-0.634,0.771-1.403,1.319-2.311c0.552-0.908,1.19-1.912,1.919-3.013
		c0.729-1.1,1.485-2.207,2.27-3.321s1.568-2.208,2.353-3.28c0.783-1.072,1.512-2.042,2.187-2.909
		c0.673-0.866,1.259-1.581,1.753-2.146c0.496-0.563,0.853-0.9,1.073-1.01c0.412-0.221,0.859-0.378,1.341-0.476
		c0.48-0.096,0.941-0.124,1.383-0.083c0.439,0.042,0.825,0.139,1.154,0.29c0.331,0.151,0.551,0.351,0.66,0.598
		c0.386-0.247,0.777-0.468,1.177-0.66c0.398-0.191,0.79-0.343,1.176-0.453c0.688-0.166,1.437-0.31,2.248-0.434
		s1.582-0.158,2.311-0.104c0.729,0.056,1.368,0.228,1.919,0.516C179.635,106.547,180.019,107.008,180.239,107.64z M166.376,118.822
		c0.495,0,1.059-0.192,1.691-0.578c0.633-0.385,1.272-0.872,1.919-1.465c0.646-0.591,1.251-1.251,1.815-1.979
		c0.563-0.729,1.031-1.444,1.402-2.146c0.372-0.701,0.612-1.334,0.723-1.897c0.109-0.563,0.027-0.997-0.248-1.3
		c-0.522-0.55-1.272-0.42-2.248,0.392c-0.977,0.812-2.441,2.305-4.395,4.477c-0.412,0.469-0.784,0.964-1.114,1.485
		c-0.33,0.523-0.557,1.005-0.681,1.444c-0.124,0.44-0.11,0.812,0.041,1.114S165.799,118.822,166.376,118.822z"/>
	<path fill="#CC3C66" d="M193.525,109.662c-0.248-0.33-0.654-0.413-1.218-0.248c-0.564,0.166-1.17,0.482-1.815,0.95
		c-0.646,0.467-1.279,1.045-1.898,1.732c-0.619,0.688-1.107,1.41-1.464,2.166c-0.358,0.757-0.537,1.5-0.537,2.229
		s0.289,1.368,0.866,1.918c0.413,0.386,1.135,0.468,2.166,0.248c1.032-0.22,2.153-0.612,3.363-1.176
		c1.211-0.564,2.406-1.218,3.59-1.96c1.183-0.743,2.146-1.431,2.888-2.063c0.743-0.632,1.335-1.011,1.774-1.135
		c0.44-0.124,0.736-0.083,0.888,0.124c0.15,0.206,0.15,0.53,0,0.969c-0.151,0.441-0.447,0.908-0.888,1.403
		c-2.118,2.366-4.229,4.141-6.333,5.323s-4.058,1.918-5.859,2.207s-3.377,0.206-4.725-0.247c-1.348-0.454-2.324-1.12-2.929-2.001
		c-0.605-0.881-0.915-1.83-0.929-2.848c-0.014-1.017,0.192-2.035,0.619-3.054c0.426-1.017,1.017-2.007,1.773-2.97
		s1.603-1.844,2.538-2.642c0.935-0.797,2.104-1.437,3.507-1.918s2.785-0.742,4.147-0.784c1.36-0.041,2.571,0.165,3.63,0.618
		c1.06,0.455,1.713,1.218,1.96,2.291c0.165,0.716,0.131,1.327-0.104,1.836c-0.233,0.509-0.57,0.915-1.01,1.217
		c-0.44,0.304-0.922,0.489-1.444,0.558c-0.523,0.069-1.004,0.015-1.444-0.166c-0.439-0.178-0.777-0.48-1.011-0.907
		C193.394,110.907,193.36,110.351,193.525,109.662z"/>
	<path fill="#CC3C66" d="M211.391,106.031c1.182-0.083,2.214,0.158,3.095,0.723c0.88,0.563,1.512,1.327,1.897,2.289
		c0.385-0.385,0.749-0.735,1.094-1.052c0.343-0.315,0.666-0.558,0.969-0.722c0.578-0.358,1.189-0.584,1.836-0.682
		c0.646-0.096,1.231-0.096,1.754,0c0.522,0.098,0.942,0.296,1.259,0.599c0.315,0.303,0.446,0.688,0.392,1.155
		c-0.027,0.303-0.233,0.708-0.619,1.217c-0.385,0.51-0.845,1.053-1.382,1.631c-0.536,0.576-1.107,1.169-1.713,1.773
		c-0.604,0.605-1.154,1.169-1.65,1.691c-0.494,0.523-0.886,0.971-1.176,1.341c-0.288,0.372-0.378,0.626-0.268,0.764
		c0.22,0.275,0.604,0.33,1.155,0.165c0.55-0.165,1.148-0.446,1.795-0.846c0.646-0.398,1.278-0.839,1.897-1.32
		c0.619-0.48,1.107-0.914,1.465-1.3c0.357-0.357,0.701-0.599,1.032-0.722c0.33-0.124,0.584-0.124,0.763,0
		c0.179,0.123,0.269,0.344,0.269,0.66s-0.151,0.722-0.454,1.217c-0.221,0.33-0.571,0.75-1.053,1.259
		c-0.48,0.509-1.045,1.039-1.691,1.588c-0.646,0.551-1.341,1.094-2.084,1.63c-0.742,0.537-1.484,1.019-2.228,1.444
		c-0.742,0.427-1.451,0.771-2.125,1.031c-0.674,0.262-1.259,0.365-1.753,0.31c-1.129-0.109-2.022-0.426-2.683-0.948
		c-0.659-0.522-1.031-1.17-1.114-1.94c-0.989,0.661-2.028,1.273-3.114,1.837c-1.087,0.564-2.133,0.984-3.136,1.258
		c-1.005,0.275-1.934,0.344-2.785,0.206c-0.854-0.138-1.527-0.591-2.021-1.36c-0.578-0.881-0.873-1.85-0.888-2.909
		c-0.014-1.059,0.2-2.125,0.64-3.198c0.44-1.072,1.073-2.11,1.898-3.114s1.794-1.905,2.908-2.703s2.338-1.465,3.672-2.001
		C208.577,106.464,209.96,106.141,211.391,106.031z M212.175,114.241c0.109-0.191,0.288-0.453,0.535-0.783
		c0.248-0.33,0.461-0.688,0.641-1.073c0.178-0.384,0.268-0.763,0.268-1.135c0-0.37-0.206-0.68-0.618-0.928
		c-0.441-0.274-0.984-0.33-1.631-0.165s-1.313,0.468-2.001,0.908c-0.688,0.439-1.348,0.963-1.98,1.567
		c-0.633,0.605-1.155,1.217-1.567,1.836c-0.413,0.619-0.681,1.197-0.805,1.732c-0.124,0.537-0.007,0.943,0.351,1.218
		c0.274,0.221,0.66,0.269,1.155,0.145s1.053-0.351,1.671-0.681c0.619-0.33,1.271-0.736,1.96-1.217
		C210.84,115.185,211.514,114.71,212.175,114.241z"/>
	<path fill="#CC3C66" d="M232.599,100.915c0.521-0.33,1.189-0.584,2.001-0.763c0.811-0.18,1.567-0.275,2.27-0.29
		c0.7-0.014,1.258,0.069,1.67,0.248c0.413,0.18,0.496,0.447,0.248,0.805c-0.303,0.44-0.742,1.08-1.32,1.919
		s-1.245,1.788-2.001,2.846c-0.757,1.061-1.575,2.195-2.455,3.404c-0.881,1.211-1.761,2.408-2.641,3.59
		c1.21-0.77,2.365-1.54,3.466-2.31c1.1-0.771,2.097-1.466,2.991-2.084c0.894-0.619,1.664-1.128,2.311-1.526
		c0.646-0.399,1.106-0.626,1.383-0.682c0.356-0.055,0.742-0.047,1.155,0.021c0.412,0.069,0.79,0.193,1.135,0.371
		c0.343,0.18,0.625,0.42,0.845,0.723c0.221,0.303,0.303,0.66,0.248,1.072c-0.027,0.275-0.282,0.619-0.764,1.031
		c-0.48,0.413-1.072,0.854-1.773,1.321c-0.702,0.468-1.459,0.929-2.27,1.382c-0.813,0.454-1.583,0.866-2.311,1.238
		c-0.729,0.371-1.348,0.681-1.857,0.928c-0.509,0.248-0.804,0.386-0.886,0.413c-0.139,0.056-0.2,0.33-0.187,0.825
		s0.109,1.011,0.289,1.547c0.179,0.537,0.454,0.984,0.825,1.341c0.371,0.358,0.832,0.428,1.382,0.207s1.155-0.544,1.816-0.97
		c0.659-0.427,1.305-0.888,1.938-1.382c0.633-0.496,1.224-0.983,1.774-1.466c0.55-0.48,1.004-0.887,1.361-1.217
		c0.356-0.33,0.694-0.516,1.012-0.558c0.315-0.041,0.557,0.021,0.722,0.187c0.164,0.165,0.219,0.412,0.164,0.742
		s-0.261,0.688-0.618,1.073c-0.66,0.688-1.402,1.472-2.228,2.352c-0.825,0.881-1.72,1.713-2.683,2.497
		c-0.964,0.783-1.995,1.438-3.094,1.96c-1.102,0.521-2.27,0.77-3.508,0.742c-0.854,0-1.568-0.263-2.146-0.784
		c-0.578-0.522-1.052-1.142-1.424-1.857c-0.371-0.715-0.653-1.457-0.846-2.228c-0.192-0.77-0.33-1.43-0.413-1.98
		c-0.99,1.32-1.884,2.483-2.682,3.486c-0.798,1.005-1.39,1.698-1.773,2.084c-0.358,0.385-0.806,0.646-1.341,0.784
		c-0.537,0.137-1.06,0.199-1.568,0.186s-0.97-0.11-1.382-0.289c-0.413-0.179-0.674-0.405-0.784-0.681
		c-0.055-0.137,0.082-0.516,0.412-1.135c0.331-0.619,0.784-1.396,1.362-2.331c0.577-0.936,1.251-1.98,2.021-3.136
		c0.771-1.156,1.568-2.332,2.394-3.528s1.657-2.372,2.497-3.527c0.838-1.155,1.608-2.193,2.311-3.115
		c0.701-0.921,1.313-1.698,1.835-2.331C232.006,101.438,232.378,101.053,232.599,100.915z"/>
	<path fill="#CC3C66" d="M252.857,106.031c0.797-0.055,1.614-0.006,2.454,0.145c0.839,0.151,1.589,0.385,2.249,0.701
		s1.183,0.722,1.567,1.218c0.386,0.494,0.537,1.072,0.454,1.732c-0.082,0.495-0.316,1.072-0.701,1.732
		c-0.386,0.661-1.005,1.308-1.856,1.939c-0.854,0.633-1.975,1.204-3.363,1.713c-1.389,0.51-3.115,0.874-5.179,1.093
		c-0.082,0.523-0.068,0.977,0.042,1.362c0.11,0.385,0.357,0.646,0.742,0.784c0.88,0.385,1.822,0.475,2.826,0.268
		c1.005-0.206,2.009-0.591,3.013-1.155c1.004-0.563,1.967-1.217,2.889-1.96c0.921-0.743,1.753-1.458,2.496-2.146
		c0.357-0.357,0.729-0.584,1.113-0.681c0.386-0.096,0.688-0.075,0.908,0.063c0.22,0.138,0.315,0.385,0.289,0.742
		c-0.028,0.357-0.262,0.798-0.702,1.32c-0.742,0.907-1.664,1.829-2.764,2.765c-1.102,0.936-2.311,1.774-3.632,2.517
		c-1.319,0.743-2.709,1.32-4.167,1.733c-1.458,0.412-2.929,0.536-4.414,0.37c-0.578-0.082-1.17-0.247-1.774-0.494
		c-0.605-0.248-1.143-0.619-1.609-1.114c-0.468-0.495-0.832-1.114-1.093-1.856c-0.262-0.743-0.337-1.65-0.228-2.724
		c0.11-1.073,0.495-2.187,1.155-3.342s1.485-2.214,2.476-3.177s2.083-1.774,3.28-2.435
		C250.525,106.485,251.701,106.113,252.857,106.031z M253.146,109.827c-0.33,0.082-0.667,0.241-1.011,0.475
		c-0.345,0.233-0.681,0.529-1.011,0.888c-0.33,0.357-0.64,0.763-0.929,1.217c-0.288,0.453-0.557,0.914-0.805,1.382
		c1.265-0.247,2.345-0.633,3.239-1.155c0.894-0.521,1.526-1.024,1.897-1.506c0.372-0.481,0.461-0.866,0.269-1.155
		S254.053,109.636,253.146,109.827z"/>
</g>
</svg>
