<?xml version="1.0" encoding="utf-8"?>
<!-- Generator: Adobe Illustrator 14.0.0, SVG Export Plug-In . SVG Version: 6.00 Build 43363)  -->
<!DOCTYPE svg PUBLIC "-//W3C//DTD SVG 1.1//EN" "http://www.w3.org/Graphics/SVG/1.1/DTD/svg11.dtd">
<svg version="1.1" id="Layer_1" xmlns="http://www.w3.org/2000/svg" xmlns:xlink="http://www.w3.org/1999/xlink" x="0px" y="0px"
	 width="340px" height="320px" viewBox="-1.25 0 340 320" enable-background="new -1.25 0 340 320" xml:space="preserve">
<path d="M-92.211,135.772c4.565-15.714,16.591-31.077,39.459-43.358c26.774-14.39,46.865-30.4,62.857-45.839
	c13.08-12.624,23.42-24.864,32.437-35.509C65.225-15.702,79.548-32.36,108.117-19.66c9.658,4.295,20.956,11.95,34.745,23.708
	c31.174,26.566,49.633,38.306,88.511,28.297c28.402-7.315,53.233-10.681,73.454,3.96c7.452,5.397,14.282,13.243,20.427,24.242
	c0.995,1.775,1.932,3.58,2.814,5.405c8.783,18.157,11.906,38.435,6.72,57.963c-0.146,0.551-0.296,1.102-0.46,1.655
	c-6.66,22.942-24.96,44.738-59.229,60.686c-11.913,5.542-18.272,15.503-21.826,27.744c-6.348,21.862-3.76,50.984-7.889,75.148
	c-0.619,3.627-1.393,7.149-2.37,10.514c-3.961,13.636-11.281,24.759-25.492,30.612c-9.522,3.926-22.142,5.48-38.919,3.843
	c-4.925-0.479-10.207-1.232-15.871-2.287c-69.876-12.956-67.262,33.158-101.267,37.878c-28.716,3.991-43.952-20.457-57.07-71.36
	c-0.663-2.576-1.321-5.228-1.979-7.941c-13.589-56.296-32.947-62.694-61.108-78.764c-2.957-1.693-5.866-3.699-8.66-5.996
	c-10.146-8.291-18.86-20.218-23.493-33.656C-94.79,160.57-95.782,148.069-92.211,135.772"/>
</svg>
