<?xml version="1.0" encoding="utf-8"?>
<!-- Generator: Adobe Illustrator 14.0.0, SVG Export Plug-In . SVG Version: 6.00 Build 43363)  -->
<!DOCTYPE svg PUBLIC "-//W3C//DTD SVG 1.1//EN" "http://www.w3.org/Graphics/SVG/1.1/DTD/svg11.dtd">
<svg version="1.1" id="Layer_1" xmlns="http://www.w3.org/2000/svg" xmlns:xlink="http://www.w3.org/1999/xlink" x="0px" y="0px"
	 width="320px" height="320px" viewBox="0 0 320 320" enable-background="new 0 0 320 320" xml:space="preserve">
<path d="M318.106,150.411c0,13.167-5.644,27.735-20.044,42.358c-16.858,17.127-28.379,34.008-36.962,49.525
	c-7.022,12.689-12.086,24.467-16.507,34.716c-11.121,25.774-18.196,41.86-42.262,38.456c-8.138-1.15-18.222-4.531-31.058-10.521
	c-29.011-13.533-45.327-18.461-72.162-2.002c-19.604,12.024-37.402,20.199-55.656,13.423c-6.731-2.498-13.524-7.029-20.492-14.149
	c-1.127-1.148-2.219-2.333-3.272-3.546C9.208,286.613,2.482,271.645,2.121,255.393c-0.011-0.461-0.017-0.918-0.017-1.381
	c0-19.224,8.93-40.171,31.041-60.186c7.687-6.955,10.271-16.078,10.271-26.335c0-18.316-8.241-40.238-10.396-59.836
	c-0.324-2.943-0.509-5.837-0.509-8.657c0-11.425,3.052-21.661,12.385-29.372c6.255-5.171,15.333-9.203,28.204-11.706
	c3.776-0.732,7.879-1.336,12.333-1.793c54.938-5.669,42.998-40.714,67.342-51.994c20.557-9.526,37.222,5.945,58.037,42.334
	c1.053,1.844,2.12,3.744,3.197,5.693c22.335,40.451,38.163,41.051,62.654,47.149c2.573,0.644,5.178,1.543,7.758,2.687
	c9.367,4.131,18.451,11.394,24.817,20.736C314.656,130.671,318.106,140.109,318.106,150.411"/>
</svg>
