<?xml version="1.0" encoding="utf-8"?>
<!-- Generator: Adobe Illustrator 14.0.0, SVG Export Plug-In . SVG Version: 6.00 Build 43363)  -->
<!DOCTYPE svg PUBLIC "-//W3C//DTD SVG 1.1//EN" "http://www.w3.org/Graphics/SVG/1.1/DTD/svg11.dtd">
<svg version="1.1" id="Layer_1" xmlns="http://www.w3.org/2000/svg" xmlns:xlink="http://www.w3.org/1999/xlink" x="0px" y="0px"
	 width="320px" height="320px" viewBox="0 0 320 320" enable-background="new 0 0 320 320" xml:space="preserve">
<path d="M169.795,318.1c-13.167,0-27.736-5.644-42.359-20.043c-17.125-16.859-34.007-28.38-49.524-36.963
	c-12.689-7.023-24.468-12.086-34.717-16.507c-25.774-11.121-41.86-18.196-38.456-42.262c1.15-8.138,4.531-18.222,10.521-31.058
	c13.534-29.011,18.461-45.327,2.003-72.162C5.238,79.502-2.938,61.703,3.84,43.45c2.498-6.731,7.029-13.524,14.148-20.492
	c1.15-1.127,2.333-2.219,3.547-3.272C33.593,9.202,48.562,2.476,64.814,2.115c0.461-0.01,0.919-0.016,1.381-0.016
	c19.225,0,40.171,8.929,60.187,31.041c6.955,7.686,16.078,10.27,26.335,10.27c18.316,0,40.238-8.241,59.835-10.395
	c2.943-0.324,5.837-0.509,8.657-0.509c11.425,0,21.661,3.052,29.372,12.385c5.171,6.255,9.203,15.333,11.706,28.204
	c0.731,3.776,1.336,7.879,1.793,12.333c5.669,54.938,40.714,42.998,51.993,67.342c9.526,20.556-5.944,37.221-42.334,58.037
	c-1.844,1.053-3.743,2.12-5.692,3.197c-40.451,22.335-41.051,38.163-47.149,62.654c-0.644,2.574-1.543,5.178-2.687,7.758
	c-4.131,9.367-11.395,18.452-20.736,24.818C189.535,314.648,180.097,318.1,169.795,318.1"/>
</svg>
