<?xml version="1.0" encoding="utf-8"?>
<!-- Generator: Adobe Illustrator 14.0.0, SVG Export Plug-In . SVG Version: 6.00 Build 43363)  -->
<!DOCTYPE svg PUBLIC "-//W3C//DTD SVG 1.1//EN" "http://www.w3.org/Graphics/SVG/1.1/DTD/svg11.dtd">
<svg version="1.1" id="Layer_1" xmlns="http://www.w3.org/2000/svg" xmlns:xlink="http://www.w3.org/1999/xlink" x="0px" y="0px"
	 width="320px" height="320px" viewBox="0 0 320 320" enable-background="new 0 0 320 320" xml:space="preserve">
<path d="M150.417,2.101c13.167,0,27.735,5.644,42.358,20.044c17.126,16.859,34.008,28.379,49.525,36.962
	c12.688,7.023,24.467,12.086,34.716,16.507c25.773,11.121,41.86,18.196,38.456,42.262c-1.15,8.137-4.531,18.221-10.521,31.057
	c-13.533,29.012-18.462,45.327-2.003,72.162c12.025,19.604,20.2,37.403,13.423,55.657c-2.498,6.73-7.028,13.523-14.148,20.491
	c-1.149,1.127-2.333,2.22-3.546,3.272c-12.058,10.482-27.026,17.209-43.278,17.569c-0.462,0.011-0.919,0.017-1.381,0.017
	c-19.224,0-40.171-8.93-60.186-31.041c-6.955-7.687-16.078-10.271-26.335-10.27c-18.316,0-40.238,8.241-59.836,10.395
	c-2.943,0.323-5.837,0.51-8.657,0.51c-11.425,0-21.661-3.053-29.372-12.385c-5.171-6.256-9.203-15.332-11.706-28.205
	c-0.732-3.775-1.336-7.879-1.793-12.332c-5.669-54.938-40.714-42.998-51.994-67.342c-9.525-20.557,5.945-37.222,42.334-58.038
	c1.844-1.053,3.744-2.12,5.693-3.197c40.451-22.335,41.051-38.163,47.148-62.654c0.645-2.574,1.543-5.178,2.688-7.758
	c4.131-9.367,11.394-18.452,20.735-24.818C130.677,5.551,140.115,2.101,150.417,2.101"/>
</svg>
